<svg width="33" height="38" viewBox="0 0 33 38" fill="none" xmlns="http://www.w3.org/2000/svg">
<path d="M16.2447 34.3993C19.6144 34.3993 22.3503 34.9867 22.3503 35.7102C22.3503 36.4337 19.6144 37.0212 16.2447 37.0212C12.8751 37.0212 10.1392 36.4337 10.1392 35.7102C10.1392 34.9867 12.8751 34.3993 16.2447 34.3993Z" fill="black" fill-opacity="0.25"/>
<path d="M28.6461 25.7239C29.0965 28.5426 28.4585 30.988 27.221 31.1857C25.9835 31.3836 26.1519 29.0132 25.7014 26.1945C25.2509 23.3759 24.3521 21.1762 25.5897 20.9783C26.8271 20.7806 28.1957 22.9053 28.6461 25.7239Z" fill="#388E3C"/>
<path d="M3.96969 25.932C3.5192 28.7508 4.15721 31.1961 5.39473 31.3939C6.63224 31.5917 6.46387 29.2213 6.91435 26.4026C7.36474 23.5841 8.26353 21.3843 7.02601 21.1865C5.7886 20.9887 4.42018 23.1134 3.96969 25.932Z" fill="#388E3C"/>
<path d="M8.53735 24.7032C8.53735 19.3767 12.0308 19.3247 16.3403 19.3247C20.6498 19.3247 24.1432 19.3767 24.1432 24.7032C24.1432 30.0296 20.6498 33.0464 16.3403 33.0464C12.0308 33.0464 8.53735 30.0296 8.53735 24.7032Z" fill="#388E3C"/>
<path d="M21.9708 21.0159C21.9708 21.8624 19.4498 22.5487 16.3402 22.5487C13.2306 22.5487 10.7097 21.8624 10.7097 21.0159C10.7097 20.1692 13.2306 19.483 16.3402 19.483C19.4498 19.483 21.9708 20.1692 21.9708 21.0159Z" fill="#E1E1E1"/>
<path d="M18.3298 27.5705C18.3073 27.5695 18.2867 27.5689 18.26 27.5981C18.2082 27.6549 18.1525 27.7086 18.0914 27.758L18.0606 27.7829L18.0508 27.7907C18.0328 27.8058 18.0259 27.8231 18.0288 27.8455C18.0296 27.8514 18.031 27.8568 18.0322 27.8623C18.0338 27.8679 18.035 27.8734 18.0365 27.879C18.0417 27.8983 18.0471 27.9177 18.0514 27.9367L18.0522 27.9399C18.0581 27.9671 18.0632 27.9946 18.0675 28.022L18.0694 28.0327C18.0727 28.0569 18.0757 28.0826 18.0779 28.1092L18.0786 28.1158C18.0789 28.1191 18.0794 28.1225 18.0796 28.126C18.082 28.1588 18.083 28.1887 18.083 28.2178C18.083 28.9258 17.5069 29.5021 16.7989 29.5021H15.2253H15.2231C15.1794 29.5015 15.1443 29.4663 15.1435 29.4226V29.4201V28.0648V28.0628C15.1441 28.0189 15.1795 27.9835 15.2235 27.983H15.225H16.7989C16.8386 27.983 16.8807 27.9812 16.9276 27.9778L16.9428 27.9767C16.9814 27.9735 17.0208 27.9687 17.0635 27.9621L17.0818 27.9592C17.1216 27.9525 17.1611 27.9445 17.1997 27.9351L17.214 27.9314C17.2558 27.9209 17.2959 27.9093 17.3333 27.897L17.3368 27.8959C17.4189 27.8685 17.4998 27.8344 17.5773 27.7945C17.6153 27.775 17.6531 27.7536 17.6905 27.7306L17.6937 27.7288C17.7305 27.7058 17.7668 27.6815 17.8006 27.6569L17.8987 27.5796C18.0197 27.4819 18.1223 27.3688 18.2052 27.2418L18.2082 27.2382C18.2176 27.2245 18.2271 27.2087 18.2368 27.1929L18.2468 27.1769C18.4161 26.9055 18.5056 26.5941 18.5056 26.2762C18.5056 25.335 17.74 24.5692 16.7989 24.5692H14.9359H14.9262C14.8128 24.572 14.7218 24.6633 14.7206 24.777V24.7811V26.7189C14.7206 26.7197 14.7202 26.7202 14.7202 26.7208V26.725C14.7202 26.7256 14.7206 26.7262 14.7206 26.7268C14.7228 26.8411 14.8152 26.9332 14.9301 26.9336H14.9313H16.7989C16.9969 26.9336 17.1876 26.9787 17.3662 27.0673C17.3672 27.0678 17.3679 27.0683 17.3688 27.0687C17.3782 27.0725 17.3886 27.0747 17.3994 27.0747C17.4181 27.0747 17.4346 27.0674 17.4482 27.0567C17.452 27.0535 17.4557 27.0504 17.4594 27.0472C17.5425 26.9731 17.6178 26.889 17.6708 26.8154C17.6793 26.8035 17.6825 26.7899 17.6799 26.776C17.6773 26.7624 17.6708 26.752 17.6609 26.746L17.6612 26.7456C17.6561 26.7426 17.6509 26.7402 17.6458 26.7372C17.6237 26.7245 17.6012 26.7122 17.5785 26.7006C17.5649 26.6935 17.5513 26.687 17.5376 26.6803C17.5224 26.6732 17.5073 26.6661 17.4919 26.6593C17.4671 26.6483 17.4419 26.6378 17.4166 26.6279C17.413 26.6266 17.4096 26.6253 17.4061 26.6239C17.3737 26.6115 17.341 26.6002 17.308 26.5898C17.308 26.5898 17.3077 26.5897 17.3075 26.5896C17.1436 26.5383 16.9722 26.5109 16.7989 26.5109H15.2271H15.221C15.178 26.5093 15.1436 26.4746 15.1431 26.4314V26.43V25.0745V25.0711C15.1441 25.0273 15.1797 24.992 15.2237 24.9919H15.2239H16.7989C16.8299 24.9919 16.8606 24.9942 16.8903 24.9965L16.8948 24.9968C17.561 25.0463 18.083 25.6084 18.083 26.2762C18.083 26.4474 18.0494 26.6144 17.9831 26.7722C17.9642 26.817 17.9427 26.861 17.9192 26.9029L17.917 26.9061C17.8338 27.0369 17.7364 27.1535 17.626 27.2554C17.6218 27.2592 17.6174 27.263 17.6132 27.2667L17.6045 27.2742C17.5577 27.3123 17.5095 27.3462 17.4609 27.3756C17.261 27.4965 17.0319 27.5602 16.7989 27.5602H14.9324C14.9319 27.5602 14.9316 27.56 14.931 27.56C14.9306 27.56 14.9302 27.5602 14.9298 27.5602C14.8153 27.561 14.7232 27.653 14.7209 27.7672C14.7209 27.7678 14.7206 27.7682 14.7206 27.7688V27.7729C14.7206 27.7735 14.7209 27.7741 14.7209 27.7748V29.7118C14.7209 29.7126 14.7206 29.713 14.7206 29.7139C14.7206 29.7146 14.7209 29.7152 14.7209 29.7159C14.7222 29.8314 14.8156 29.9247 14.9315 29.9247H16.7989C17.74 29.9247 18.5056 29.1589 18.5056 28.2178C18.5056 28.015 18.4697 27.8172 18.399 27.6276C18.3902 27.6027 18.3714 27.5768 18.3298 27.5705Z" fill="#00F57C"/>
<path d="M30.1952 15.3857C29.021 15.3857 28.0601 14.425 28.0601 13.2507V11.066C28.0601 9.89172 29.021 8.93091 30.1952 8.93091C31.3696 8.93091 32.3304 9.89172 32.3304 11.066V13.2507C32.3304 14.425 31.3696 15.3857 30.1952 15.3857Z" fill="#E1E1E1"/>
<path d="M2.46548 15.3857C1.29124 15.3857 0.330322 14.425 0.330322 13.2507V11.066C0.330322 9.89172 1.29124 8.93091 2.46548 8.93091C3.63983 8.93091 4.60064 9.89172 4.60064 11.066V13.2507C4.60064 14.425 3.63983 15.3857 2.46548 15.3857Z" fill="#E1E1E1"/>
<path d="M30.2073 12.3045C30.2073 18.5596 24.0023 18.5959 16.348 18.5959C8.69372 18.5959 2.48877 18.5596 2.48877 12.3045C2.48877 6.04942 8.69372 0.97876 16.348 0.97876C24.0023 0.97876 30.2073 6.04942 30.2073 12.3045Z" fill="#388E3C"/>
<path d="M24.4937 15.7621H8.24778C6.73304 15.7621 5.49365 14.5227 5.49365 13.008V11.1954C5.49365 9.68067 6.73304 8.44128 8.24778 8.44128H24.4937C26.0086 8.44128 27.248 9.68067 27.248 11.1954V13.008C27.248 14.5227 26.0086 15.7621 24.4937 15.7621Z" fill="#333333"/>
<path d="M12.5808 8.44128H24.4938C26.0086 8.44128 27.248 9.68067 27.248 11.1954V13.008C27.248 14.5227 26.0086 15.7621 24.4938 15.7621H18.3225C18.3225 15.7621 17.9211 13.9516 16.1452 11.7081C14.3692 9.46453 12.5808 8.44128 12.5808 8.44128Z" fill="#222222"/>
<path d="M22.9436 14.3395C22.5107 14.3395 22.1565 13.9862 22.1565 13.5544V10.649C22.1565 10.2171 22.5107 9.86377 22.9436 9.86377C23.3765 9.86377 23.7308 10.2171 23.7308 10.649V13.5544C23.7308 13.9862 23.3765 14.3395 22.9436 14.3395Z" fill="#00F57C"/>
<path d="M9.79773 14.3395C9.36473 14.3395 9.0105 13.9862 9.0105 13.5544V10.649C9.0105 10.2171 9.36473 9.86377 9.79773 9.86377C10.2306 9.86377 10.5848 10.2171 10.5848 10.649V13.5544C10.5848 13.9862 10.2306 14.3395 9.79773 14.3395Z" fill="#00F57C"/>
</svg>
