<svg width="218" height="197" viewBox="0 0 218 197" fill="none" xmlns="http://www.w3.org/2000/svg">
<path d="M35.0329 196.461H0.0735592L0 83.1074C0 79.6098 2.75609 76.7745 6.15611 76.7745H28.8032C32.2033 76.7745 34.9593 79.6098 34.9593 83.1074L35.0329 196.461Z" fill="#D7EAE7"/>
<path d="M35.0329 196.461H0.0735592L0 83.1074C0 79.6098 2.75609 76.7745 6.15611 76.7745H28.8032C32.2033 76.7745 34.9593 79.6098 34.9593 83.1074L35.0329 196.461Z" fill="#D7EAE7"/>
<path d="M96.0222 196.461H61.0628L60.9854 45.0972C60.9854 41.5996 63.7414 38.7643 67.1415 38.7643H89.7886C93.1886 38.7643 95.9447 41.5996 95.9447 45.0972L96.0222 196.461Z" fill="#C1DCC3"/>
<path d="M157.011 196.461H122.051L122.008 6.79376C122.008 3.29611 124.764 0.460876 128.164 0.460876H150.812C154.212 0.460876 156.968 3.29611 156.968 6.79376L157.011 196.461Z" fill="#388E3C"/>
<path d="M218 196.461H183.041V85.3161C183.041 81.8184 185.797 78.9832 189.197 78.9832H211.844C215.244 78.9832 218 81.8184 218 85.3161V196.461Z" fill="#D7EAE7"/>
</svg>
