<svg width="188" height="210" viewBox="0 0 188 210" fill="none" xmlns="http://www.w3.org/2000/svg">
<path d="M93.5023 194.451C113.108 194.451 129.026 197.869 129.026 202.078C129.026 206.288 113.108 209.706 93.5023 209.706C73.8966 209.706 57.9783 206.288 57.9783 202.078C57.9783 197.869 73.8966 194.451 93.5023 194.451Z" fill="black" fill-opacity="0.25"/>
<path d="M165.657 143.975C168.278 160.375 164.566 174.603 157.366 175.754C150.166 176.905 151.145 163.113 148.524 146.713C145.903 130.314 140.674 117.515 147.875 116.364C155.074 115.213 163.037 127.575 165.657 143.975Z" fill="#388E3C"/>
<path d="M22.0818 145.186C19.4607 161.586 23.1729 175.814 30.3731 176.965C37.5733 178.116 36.5937 164.324 39.2148 147.924C41.8352 131.525 47.0647 118.726 39.8644 117.575C32.6648 116.424 24.7029 128.786 22.0818 145.186Z" fill="#388E3C"/>
<path d="M48.6576 138.036C48.6576 107.045 68.9838 106.742 94.0575 106.742C119.132 106.742 139.457 107.045 139.457 138.036C139.457 169.027 119.132 186.579 94.0575 186.579C68.9838 186.579 48.6576 169.027 48.6576 138.036Z" fill="#388E3C"/>
<path d="M126.818 116.582C126.818 121.507 112.15 125.5 94.0575 125.5C75.9648 125.5 61.2974 121.507 61.2974 116.582C61.2974 111.656 75.9648 107.663 94.0575 107.663C112.15 107.663 126.818 111.656 126.818 116.582Z" fill="#E1E1E1"/>
<path d="M105.633 154.718C105.501 154.713 105.381 154.709 105.226 154.879C104.925 155.209 104.601 155.522 104.246 155.809L104.066 155.954L104.009 156C103.905 156.087 103.864 156.188 103.881 156.319C103.886 156.353 103.894 156.384 103.901 156.416C103.91 156.449 103.917 156.481 103.926 156.514C103.956 156.626 103.988 156.739 104.013 156.849L104.017 156.868C104.052 157.026 104.082 157.186 104.106 157.346L104.117 157.408C104.137 157.548 104.154 157.698 104.167 157.853L104.171 157.891C104.173 157.91 104.175 157.93 104.177 157.95C104.191 158.141 104.197 158.315 104.197 158.484C104.197 162.604 100.845 165.957 96.7251 165.957H87.5698H87.5571C87.3028 165.953 87.0981 165.749 87.0939 165.495V165.48V157.594V157.583C87.0969 157.327 87.3034 157.122 87.5589 157.118H87.568H96.7251C96.9564 157.118 97.201 157.108 97.4741 157.088L97.5625 157.082C97.7871 157.063 98.0166 157.036 98.2648 156.997L98.3714 156.98C98.6027 156.941 98.8327 156.894 99.0574 156.84L99.1403 156.818C99.3837 156.757 99.6168 156.69 99.8348 156.618L99.8548 156.612C100.332 156.452 100.804 156.254 101.254 156.022C101.476 155.908 101.695 155.784 101.913 155.65L101.932 155.639C102.146 155.506 102.357 155.364 102.553 155.221L103.124 154.772C103.828 154.203 104.425 153.545 104.907 152.806L104.925 152.785C104.979 152.705 105.035 152.613 105.091 152.522L105.15 152.429C106.135 150.849 106.655 149.037 106.655 147.188C106.655 141.712 102.201 137.256 96.7251 137.256H85.886H85.8291C85.1697 137.272 84.6399 137.803 84.6333 138.465V138.489V149.764C84.6333 149.768 84.6309 149.771 84.6309 149.775V149.799C84.6309 149.803 84.6333 149.806 84.6333 149.81C84.646 150.475 85.1837 151.011 85.8521 151.013H85.8587H96.7251C97.8773 151.013 98.9871 151.275 100.026 151.791C100.032 151.793 100.036 151.796 100.041 151.799C100.096 151.821 100.156 151.834 100.219 151.834C100.328 151.834 100.424 151.792 100.503 151.729C100.525 151.71 100.547 151.692 100.568 151.673C101.052 151.242 101.49 150.753 101.798 150.325C101.848 150.256 101.866 150.177 101.851 150.096C101.836 150.017 101.798 149.956 101.741 149.921L101.743 149.919C101.713 149.901 101.683 149.887 101.653 149.87C101.524 149.796 101.393 149.724 101.261 149.657C101.182 149.616 101.103 149.578 101.023 149.539C100.935 149.497 100.847 149.456 100.758 149.417C100.613 149.353 100.466 149.292 100.319 149.234C100.299 149.227 100.279 149.219 100.258 149.211C100.07 149.139 99.8796 149.073 99.6877 149.012C99.6877 149.012 99.6858 149.012 99.6846 149.011C98.731 148.713 97.7338 148.554 96.7251 148.554H87.5801H87.5444C87.2943 148.544 87.0945 148.342 87.0915 148.091V148.082V140.196V140.176C87.0969 139.921 87.304 139.716 87.5601 139.715H87.5613H96.7251C96.9055 139.715 97.0841 139.729 97.2573 139.742L97.2833 139.744C101.16 140.032 104.197 143.302 104.197 147.188C104.197 148.184 104.001 149.155 103.615 150.074C103.505 150.334 103.38 150.59 103.244 150.834L103.231 150.853C102.746 151.614 102.18 152.292 101.537 152.885C101.513 152.907 101.488 152.929 101.463 152.951L101.413 152.995C101.14 153.216 100.86 153.414 100.577 153.584C99.414 154.288 98.0807 154.658 96.7251 154.658H85.8654C85.8624 154.658 85.8606 154.657 85.8575 154.657C85.8551 154.657 85.8527 154.658 85.8503 154.658C85.1843 154.663 84.6484 155.199 84.6351 155.863C84.6351 155.866 84.6333 155.869 84.6333 155.872V155.896C84.6333 155.9 84.6351 155.903 84.6351 155.907V167.177C84.6351 167.182 84.6333 167.184 84.6333 167.189C84.6333 167.193 84.6351 167.197 84.6351 167.201C84.6424 167.873 85.1861 168.416 85.86 168.416H96.7251C102.201 168.416 106.655 163.96 106.655 158.484C106.655 157.305 106.447 156.154 106.035 155.051C105.984 154.906 105.874 154.755 105.633 154.718Z" fill="#00F57C"/>
<path d="M174.67 83.8238C167.838 83.8238 162.247 78.2341 162.247 71.4014V58.6902C162.247 51.8581 167.838 46.2678 174.67 46.2678C181.503 46.2678 187.093 51.8581 187.093 58.6902V71.4014C187.093 78.2341 181.503 83.8238 174.67 83.8238Z" fill="#E1E1E1"/>
<path d="M13.3301 83.8238C6.498 83.8238 0.907104 78.2341 0.907104 71.4014V58.6902C0.907104 51.8581 6.498 46.2678 13.3301 46.2678C20.1628 46.2678 25.7531 51.8581 25.7531 58.6902V71.4014C25.7531 78.2341 20.1628 83.8238 13.3301 83.8238Z" fill="#E1E1E1"/>
<path d="M174.741 65.8968C174.741 102.291 138.638 102.502 94.1036 102.502C49.5684 102.502 13.4661 102.291 13.4661 65.8968C13.4661 29.5027 49.5684 0 94.1036 0C138.638 0 174.741 29.5027 174.741 65.8968Z" fill="#388E3C"/>
<path d="M141.497 86.014H46.9726C38.1594 86.014 30.9482 78.8029 30.9482 69.9897V59.4436C30.9482 50.6304 38.1594 43.4193 46.9726 43.4193H141.497C150.31 43.4193 157.521 50.6304 157.521 59.4436V69.9897C157.521 78.8029 150.31 86.014 141.497 86.014Z" fill="#333333"/>
<path d="M72.1831 43.4193H141.497C150.31 43.4193 157.521 50.6304 157.521 59.4436V69.9897C157.521 78.8029 150.31 86.014 141.497 86.014H105.59C105.59 86.014 103.255 75.4801 92.9216 62.4268C82.5887 49.3729 72.1831 43.4193 72.1831 43.4193Z" fill="#222222"/>
<path d="M132.478 77.7373C129.959 77.7373 127.898 75.6815 127.898 73.169V56.2649C127.898 53.7518 129.959 51.696 132.478 51.696C134.997 51.696 137.058 53.7518 137.058 56.2649V73.169C137.058 75.6815 134.997 77.7373 132.478 77.7373Z" fill="#00F57C"/>
<path d="M55.9916 77.7373C53.4723 77.7373 51.4113 75.6815 51.4113 73.169V56.2649C51.4113 53.7518 53.4723 51.696 55.9916 51.696C58.5104 51.696 60.5708 53.7518 60.5708 56.2649V73.169C60.5708 75.6815 58.5104 77.7373 55.9916 77.7373Z" fill="#00F57C"/>
</svg>
