<svg width="198" height="179" viewBox="0 0 198 179" fill="none" xmlns="http://www.w3.org/2000/svg">
<path d="M172.603 8.22656C172.603 8.22656 181.322 11.9536 181.557 24.0096C181.793 36.0646 180.968 39.6465 180.968 39.6465L148.449 38.3365L172.603 8.22656Z" fill="#388E3C"/>
<path d="M172.838 8.28545C172.838 8.28545 162.705 18.6535 157.05 68.9245C151.395 119.195 153.044 151.871 153.044 151.871H47.789C47.789 151.871 50.122 35.6674 70.545 2.99144C70.545 2.99144 115.655 -6.48155 172.838 8.28545Z" fill="#F4FEE7"/>
<path d="M76.026 11.3335L64.587 53.9915L148.235 57.0895" stroke="#388E3C" stroke-width="0.9334" stroke-miterlimit="10" stroke-linecap="round" stroke-linejoin="round"/>
<path d="M71.498 47.7956L87.704 30.6365L103.671 48.7485L120.829 28.0155L132.03 40.8846L152.049 17.5295" stroke="#A6DAF8" stroke-width="0.9334" stroke-miterlimit="10" stroke-linecap="round" stroke-linejoin="round"/>
<path d="M71.558 48.8684C72.4467 48.8684 73.167 48.148 73.167 47.2594C73.167 46.3708 72.4467 45.6504 71.558 45.6504C70.6694 45.6504 69.949 46.3708 69.949 47.2594C69.949 48.148 70.6694 48.8684 71.558 48.8684Z" fill="#A6DAF8"/>
<path d="M105.101 48.5104C105.101 49.3984 104.381 50.1194 103.492 50.1194C102.604 50.1194 101.883 49.3994 101.883 48.5104C101.883 47.6214 102.603 46.9014 103.492 46.9014C104.38 46.9014 105.101 47.6214 105.101 48.5104Z" fill="#A6DAF8"/>
<path d="M89.134 30.7555C89.134 31.6435 88.414 32.3645 87.525 32.3645C86.637 32.3645 85.916 31.6445 85.916 30.7555C85.916 29.8665 86.636 29.1465 87.525 29.1465C88.413 29.1475 89.134 29.8675 89.134 30.7555Z" fill="#A6DAF8"/>
<path d="M122.557 28.2535C122.557 29.1415 121.837 29.8625 120.948 29.8625C120.059 29.8625 119.339 29.1425 119.339 28.2535C119.339 27.3645 120.059 26.6445 120.948 26.6445C121.837 26.6445 122.557 27.3655 122.557 28.2535Z" fill="#A6DAF8"/>
<path d="M152.227 19.2575C153.116 19.2575 153.836 18.5372 153.836 17.6486C153.836 16.7599 153.116 16.0396 152.227 16.0396C151.338 16.0396 150.618 16.7599 150.618 17.6486C150.618 18.5372 151.338 19.2575 152.227 19.2575Z" fill="#A6DAF8"/>
<path d="M133.937 40.5265C133.937 41.4145 133.217 42.1355 132.328 42.1355C131.44 42.1355 130.719 41.4155 130.719 40.5265C130.719 39.6385 131.439 38.9175 132.328 38.9175C133.217 38.9185 133.937 39.6385 133.937 40.5265Z" fill="#A6DAF8"/>
<path d="M106.501 77.3094C101.91 69.6213 93.571 64.4084 83.958 64.2414C80.533 64.1824 77.246 64.7694 74.211 65.8934C64.167 69.6034 56.925 79.1864 56.729 90.5444C56.473 105.327 68.249 117.517 83.031 117.773C95.275 117.985 105.749 109.932 109.116 98.7604C109.819 96.4484 110.216 94.0094 110.26 91.4704C110.35 86.3004 108.968 81.4413 106.501 77.3094ZM83.278 103.485C76.39 103.366 70.907 97.6793 71.026 90.7913C71.115 85.6393 74.309 81.2794 78.793 79.4524C80.307 78.8344 81.974 78.5084 83.71 78.5384C88.012 78.6134 91.773 80.8623 93.955 84.2143C95.264 86.2253 96.007 88.6373 95.962 91.2223C95.937 92.6593 95.671 94.0274 95.201 95.3074C93.428 100.16 88.729 103.579 83.278 103.485Z" fill="#388E3C"/>
<path d="M106.501 77.3094L93.956 84.2154C91.773 80.8634 88.013 78.6144 83.711 78.5394C81.975 78.5094 80.308 78.8354 78.794 79.4534C77.479 75.6124 75.535 69.8184 74.212 65.8934C77.247 64.7694 80.534 64.1824 83.959 64.2414C93.57 64.4084 101.91 69.6213 106.501 77.3094Z" fill="#A6DAF8"/>
<path d="M110.26 91.4703C110.216 94.0093 109.819 96.4483 109.116 98.7603L95.201 95.3083C95.671 94.0283 95.938 92.6603 95.962 91.2233C96.007 88.6383 95.264 86.2263 93.955 84.2153L106.5 77.3093C108.968 81.4413 110.35 86.3003 110.26 91.4703Z" fill="#C1DCC3"/>
<path d="M117.686 80.3205L118.626 71.9155L149.432 73.0845L148.484 81.9665L117.686 80.3205Z" fill="#C1DCC3"/>
<path d="M116.302 91.4204L146.547 92.8974" stroke="#388E3C" stroke-width="0.9334" stroke-miterlimit="10" stroke-linecap="round" stroke-linejoin="round"/>
<path d="M116.195 97.6155L146.44 99.0925" stroke="#388E3C" stroke-width="0.9334" stroke-miterlimit="10" stroke-linecap="round" stroke-linejoin="round"/>
<path d="M114.713 103.811L146.332 105.288" stroke="#388E3C" stroke-width="0.9334" stroke-miterlimit="10" stroke-linecap="round" stroke-linejoin="round"/>
<path d="M114.236 110.006L146.225 111.483" stroke="#388E3C" stroke-width="0.9334" stroke-miterlimit="10" stroke-linecap="round" stroke-linejoin="round"/>
<path d="M60.059 126.756H94.376" stroke="#388E3C" stroke-width="0.9334" stroke-miterlimit="10" stroke-linecap="round" stroke-linejoin="round"/>
<path d="M60.059 131.284H94.376" stroke="#388E3C" stroke-width="0.9334" stroke-miterlimit="10" stroke-linecap="round" stroke-linejoin="round"/>
<path d="M60.059 135.812H94.376" stroke="#388E3C" stroke-width="0.9334" stroke-miterlimit="10" stroke-linecap="round" stroke-linejoin="round"/>
<path d="M111.297 126.756H145.614" stroke="#388E3C" stroke-width="0.9334" stroke-miterlimit="10" stroke-linecap="round" stroke-linejoin="round"/>
<path d="M111.297 131.284H145.614" stroke="#388E3C" stroke-width="0.9334" stroke-miterlimit="10" stroke-linecap="round" stroke-linejoin="round"/>
<path d="M111.297 135.812H145.614" stroke="#388E3C" stroke-width="0.9334" stroke-miterlimit="10" stroke-linecap="round" stroke-linejoin="round"/>
<path d="M197.608 54.0515L175.588 133.905L161.35 149.031L158.455 128.789L180.037 49.6016L197.608 54.0515Z" fill="#388E3C"/>
<path d="M164.911 123.227L183.927 52.6064" stroke="#1A263D" stroke-width="0.4901" stroke-miterlimit="10" stroke-linecap="round" stroke-linejoin="round"/>
<path d="M174.142 125.674L193.158 55.0535" stroke="#1A263D" stroke-width="0.4901" stroke-miterlimit="10" stroke-linecap="round" stroke-linejoin="round"/>
<path d="M175.588 133.905L166.74 143.301L161.35 149.031L160.167 140.766L158.455 128.789L164.911 123.228L167.577 130.35L174.47 125.234L175.588 133.905Z" fill="#C1DCC3"/>
<path d="M166.74 143.3L161.349 149.03L160.166 140.764C161.995 140.117 164.57 140.94 165.838 142.11C166.211 142.451 166.512 142.856 166.74 143.3Z" fill="#1A263D"/>
<path d="M180.037 49.6016C180.037 49.6016 181.258 56.4985 186.818 57.6115C192.379 58.7235 197.607 54.0515 197.607 54.0515L180.037 49.6016Z" fill="#C1DCC3"/>
<path d="M82.1581 125.689C81.0451 129.733 72.1141 142.409 52.3341 147.304C32.5561 152.191 21.1711 153.701 16.8411 155.272C12.5131 156.849 8.62107 158.243 7.84907 156.328C7.07707 154.412 9.66606 151.483 9.27806 140.337C8.90306 129.507 5.53206 120.046 3.34206 110.27L3.25706 109.875L3.11806 109.247C2.66006 107.097 2.47906 104.95 2.53506 102.841C2.53206 102.816 2.53606 102.794 2.54106 102.772C2.99406 100.574 2.94206 98.3475 3.56906 96.1455C4.18906 93.9665 5.08106 91.8655 6.21506 89.9045C7.59006 87.5275 9.53706 85.6355 11.2831 83.5445C13.7391 80.6035 16.5791 77.1705 17.8831 73.5195L17.7261 73.3625C17.7261 73.3625 11.3991 69.9475 11.3911 69.9435L9.18506 68.8475L9.16107 68.8375L4.41306 66.4785C4.36206 66.4525 4.31306 66.4315 4.27906 66.4115C4.16906 66.3555 4.11006 66.3255 4.11006 66.3255L2.60606 65.8405C0.718063 65.2315 -0.162936 63.0665 0.762064 61.3125C0.762064 61.3125 3.36506 56.3765 3.37106 56.3735C3.38006 56.3515 3.38806 56.3285 3.39706 56.3065C4.18706 54.2575 6.80606 53.6585 8.45706 55.1075C12.0081 58.2225 16.8241 62.4925 16.2661 61.6535C15.8221 60.9785 13.7501 58.0405 11.7761 55.2575C10.7961 53.8755 11.3571 51.9565 12.9141 51.2885C13.3441 51.1045 13.7771 50.9245 14.2121 50.7485C15.9261 50.0575 17.6511 49.4475 19.3841 48.9155C20.8281 48.4725 22.3511 49.3205 22.7301 50.7815L23.1421 52.3675L23.1061 49.3335C23.0961 48.4945 23.6731 47.7495 24.4931 47.5705C27.5021 46.9115 30.5261 46.4755 33.5561 46.2635C36.0461 46.0895 35.4671 49.6275 35.2431 51.1235C34.6691 54.9455 33.7821 58.7935 33.3711 62.6335L33.0641 65.5005C33.0641 65.5005 33.0801 65.5075 33.1161 65.5125C33.2621 65.5415 33.7221 65.6505 34.4171 65.8265C35.8281 66.1835 38.2101 66.8335 40.9011 67.7675C42.0531 68.1615 43.2531 68.6105 44.4581 69.1035C46.2191 69.8285 47.9811 70.6545 49.5981 71.5865C51.4091 72.6345 53.0361 73.8095 54.2401 75.1155C54.2651 75.1455 54.2971 75.1735 54.3251 75.2085C55.9141 76.9365 57.6851 79.2675 59.4721 81.8535C64.1941 88.6905 69.0061 97.3025 70.5931 101.238C72.7891 106.685 77.5941 116.91 79.3371 119.118C81.0831 121.326 83.2661 121.647 82.1581 125.689Z" fill="#388E3C"/>
<path d="M45.9221 98.0767C42.5181 97.6797 38.9301 98.5697 36.1321 100.562C33.4521 102.471 30.6831 106.257 33.3131 109.397C35.4841 111.989 39.4531 111.023 42.3141 110.591C44.0251 110.333 46.0391 109.879 47.6681 110.692C48.9901 111.351 49.4221 112.623 48.7741 113.944C47.1411 117.272 42.2821 117.852 39.2141 116.455C38.5541 116.154 37.7861 116.271 37.3901 116.933C37.0491 117.503 37.2141 118.46 37.8681 118.758C41.1451 120.249 45.0461 120.214 48.1711 118.32C50.8251 116.711 52.9861 113.056 50.9841 110.127C48.6301 106.683 44.1021 107.642 40.6251 108.167C39.2061 108.381 37.5111 108.753 36.1231 108.207C34.6311 107.62 34.7781 105.943 35.5231 104.795C37.6381 101.536 42.2821 100.32 45.9211 100.744C46.6421 100.828 47.2481 100.071 47.2551 99.4107C47.2641 98.6207 46.6351 98.1597 45.9221 98.0767Z" fill="#C1DCC3"/>
<path d="M36.1431 96.4136C39.8461 104.818 43.0081 113.452 45.6391 122.25C46.1291 123.89 48.7041 123.192 48.2111 121.541C45.5131 112.519 42.2431 103.684 38.4461 95.0666C37.7561 93.4996 35.4571 94.8556 36.1431 96.4136Z" fill="#C1DCC3"/>
<path d="M34.1331 65.5925C32.4071 67.4735 30.4801 69.0835 28.2461 70.3785C26.0111 71.6735 23.7071 72.9115 21.3021 73.8515C20.0221 74.3515 18.5191 74.8475 17.1451 74.8675C16.8541 74.2005 16.7281 73.6885 16.3221 73.0855C22.9231 71.2905 29.0011 67.6115 33.6511 62.5935C33.6491 63.6965 33.9791 64.5005 34.1331 65.5925Z" fill="#C1DCC3"/>
</svg>
