<svg width="176" height="202" viewBox="0 0 176 202" fill="none" xmlns="http://www.w3.org/2000/svg">
<path d="M42.7665 80.5627H132.011" stroke="#5C5C5C" stroke-width="9" stroke-linecap="round"/>
<path d="M42.7665 99.9794H132.011" stroke="#5C5C5C" stroke-width="9" stroke-linecap="round"/>
<path d="M42.7665 116.51H132.011" stroke="#5C5C5C" stroke-width="9" stroke-linecap="round"/>
<path d="M42.7665 136.78H71.0884" stroke="#5C5C5C" stroke-width="9" stroke-linecap="round"/>
<path d="M42.7665 57.6036H90.3092" stroke="#5D5D5D" stroke-width="9" stroke-linecap="round"/>
<path d="M5.00402 39.4988V16.5397C5.00402 16.5397 4.46068 5.65056 16.0068 5.51937C27.5528 5.38817 40.0498 5.51937 40.0498 5.51937" stroke="#388E3C" stroke-width="9" stroke-linecap="round"/>
<path d="M135.407 5.46476H159.178C159.178 5.46476 170.453 4.93998 170.588 16.0915C170.724 27.2431 170.588 39.313 170.588 39.313" stroke="#388E3C" stroke-width="9" stroke-linecap="round"/>
<path d="M170.996 163.423V186.382C170.996 186.382 171.539 197.271 159.993 197.402C148.447 197.534 135.95 197.402 135.95 197.402" stroke="#388E3C" stroke-width="9" stroke-linecap="round"/>
<path d="M40.2421 197.457H16.4707C16.4707 197.457 5.19633 197.982 5.06049 186.83C4.92466 175.679 5.06049 163.609 5.06049 163.609" stroke="#388E3C" stroke-width="9" stroke-linecap="round"/>
<path d="M101.821 23.0994C101.821 23.0994 62.5986 23.2306 46.5699 22.9682C30.5412 22.7058 29.1829 35.0381 29.1829 35.0381C29.1829 35.0381 28.6395 154.294 28.6395 164.79C28.6395 177.975 42.359 179.615 42.359 179.615C42.359 179.615 112.858 179.615 130.245 179.615C147.632 179.615 147.632 165.97 147.632 165.97C147.632 165.97 147.632 77.1516 147.632 66.3936C147.632 62.8514 144.915 60.4899 144.915 60.4899C144.915 60.4899 120.737 36.4813 109.734 25.8545C106.372 22.6077 101.821 23.0994 101.821 23.0994Z" stroke="#090715" stroke-width="9"/>
<path d="M104.708 24.0178V52.8806C104.708 52.8806 103.078 64.6881 118.291 64.6881C133.505 64.6881 145.187 64.6881 145.187 64.6881" stroke="#090715" stroke-width="9"/>
<path d="M16.6859 78.1815H157.956" stroke="#388E3C" stroke-width="9" stroke-linecap="round"/>
</svg>
