<svg width="21" height="20" viewBox="0 0 21 20" fill="none" xmlns="http://www.w3.org/2000/svg">
<path d="M0.583326 10C0.583326 4.615 4.94833 0.25 10.3333 0.25C15.7183 0.25 20.0833 4.615 20.0833 10C20.0833 15.385 15.7183 19.75 10.3333 19.75C8.82657 19.7525 7.33995 19.404 5.99133 18.732C5.78133 18.628 5.46833 18.618 4.98133 18.737C4.73533 18.8 4.49211 18.8734 4.25233 18.957L4.16633 18.987C3.94633 19.061 3.70633 19.141 3.48333 19.201C2.05633 19.583 0.750326 18.277 1.13233 16.851C1.19233 16.627 1.27233 16.388 1.34633 16.167L1.37633 16.081C1.46133 15.826 1.53933 15.586 1.59633 15.352C1.71633 14.865 1.70633 14.552 1.60133 14.342C0.929365 12.9934 0.58082 11.5068 0.583326 10ZM7.08333 10.25C7.08333 10.0511 7.00431 9.86032 6.86366 9.71967C6.723 9.57902 6.53224 9.5 6.33333 9.5C6.13441 9.5 5.94365 9.57902 5.803 9.71967C5.66234 9.86032 5.58333 10.0511 5.58333 10.25V10.75C5.58333 10.9489 5.66234 11.1397 5.803 11.2803C5.94365 11.421 6.13441 11.5 6.33333 11.5C6.53224 11.5 6.723 11.421 6.86366 11.2803C7.00431 11.1397 7.08333 10.9489 7.08333 10.75V10.25ZM11.0833 10.25C11.0833 10.0511 11.0043 9.86032 10.8637 9.71967C10.723 9.57902 10.5322 9.5 10.3333 9.5C10.1344 9.5 9.94365 9.57902 9.803 9.71967C9.66234 9.86032 9.58333 10.0511 9.58333 10.25V10.75C9.58333 10.9489 9.66234 11.1397 9.803 11.2803C9.94365 11.421 10.1344 11.5 10.3333 11.5C10.5322 11.5 10.723 11.421 10.8637 11.2803C11.0043 11.1397 11.0833 10.9489 11.0833 10.75V10.25ZM15.0833 10.25C15.0833 10.0511 15.0043 9.86032 14.8637 9.71967C14.723 9.57902 14.5322 9.5 14.3333 9.5C14.1344 9.5 13.9436 9.57902 13.803 9.71967C13.6623 9.86032 13.5833 10.0511 13.5833 10.25V10.75C13.5833 10.9489 13.6623 11.1397 13.803 11.2803C13.9436 11.421 14.1344 11.5 14.3333 11.5C14.5322 11.5 14.723 11.421 14.8637 11.2803C15.0043 11.1397 15.0833 10.9489 15.0833 10.75V10.25Z" fill="#388E3C"/>
</svg>
