<svg width="21" height="20" viewBox="0 0 21 20" fill="none" xmlns="http://www.w3.org/2000/svg">
<path d="M10.3333 10.75V10.25M14.3333 10.75V10.25M6.33331 10.75V10.25M10.3333 19C12.1133 19 13.8534 18.4722 15.3334 17.4832C16.8135 16.4943 17.967 15.0887 18.6482 13.4442C19.3294 11.7996 19.5076 9.99002 19.1604 8.24419C18.8131 6.49836 17.9559 4.89472 16.6973 3.63604C15.4386 2.37737 13.835 1.5202 12.0891 1.17294C10.3433 0.82567 8.5337 1.0039 6.88916 1.68509C5.24463 2.36628 3.83902 3.51983 2.85009 4.99987C1.86115 6.47991 1.33331 8.21997 1.33331 10C1.33331 11.44 1.67131 12.8 2.27331 14.007C2.72631 14.918 2.09631 16.147 1.85631 17.044C1.80314 17.2424 1.80313 17.4513 1.85629 17.6497C1.90944 17.8481 2.01388 18.029 2.15911 18.1742C2.30435 18.3194 2.48525 18.4239 2.68364 18.477C2.88204 18.5302 3.09092 18.5302 3.28931 18.477C4.18631 18.237 5.41531 17.607 6.32631 18.061C7.57153 18.6793 8.94305 19.0007 10.3333 19Z" stroke="#D3D3D3" stroke-width="1.5" stroke-linecap="round" stroke-linejoin="round"/>
</svg>
