<svg width="16" height="16" viewBox="0 0 16 16" fill="none" xmlns="http://www.w3.org/2000/svg">
<path d="M0.533326 3.19733C0.238663 3.19733 0 3.43599 0 3.73065V4.26398C0 4.51464 0.174664 4.72397 0.407995 4.7813C0.447994 4.79064 0.49066 4.7973 0.533326 4.7973H1.06799C1.06799 4.83463 2.3333 11.3105 2.3333 11.3105C2.3813 11.5559 2.57997 11.7319 2.81063 11.7319H11.2079L12.5678 4.7973H13.1638V4.7813L13.3318 4.26398V3.19733H0.533326Z" fill="url(#paint0_linear_147_1626)"/>
<path d="M0 4.26392C0 4.51458 0.174664 4.72391 0.407995 4.78124H13.1652L13.3332 4.26392H0Z" fill="#F57C00"/>
<path d="M2.20529 5.92257L3.15328 10.1905C3.17995 10.3132 3.28795 10.3998 3.41328 10.3998H3.99994C4.1466 10.3998 4.2666 10.2798 4.2666 10.1332V5.86523C4.2666 5.71857 4.1466 5.59857 3.99994 5.59857H2.46529C2.29463 5.59857 2.16796 5.7559 2.20529 5.92257Z" fill="#F57C00"/>
<path d="M10.5945 5.92257L9.64652 10.1905C9.61986 10.3132 9.51186 10.3998 9.38653 10.3998H8.79987C8.6532 10.3998 8.5332 10.2798 8.5332 10.1332V5.86523C8.5332 5.71857 8.6532 5.59857 8.79987 5.59857H10.3345C10.5038 5.59857 10.6318 5.7559 10.5945 5.92257Z" fill="#F57C00"/>
<path d="M5.63072 5.59857H7.16803C7.3267 5.59857 7.45069 5.73724 7.43336 5.89457L6.96003 10.1612C6.94537 10.2958 6.8307 10.3985 6.6947 10.3985H6.10538C5.96938 10.3985 5.85472 10.2958 5.84005 10.1612L5.36539 5.89323C5.34806 5.7359 5.47205 5.59857 5.63072 5.59857Z" fill="#F57C00"/>
<path opacity="0.2" d="M12.9332 3.59732V4.20131L12.8692 4.39864H12.5692C12.3785 4.39864 12.2132 4.53464 12.1772 4.7213L10.8799 11.3332H2.81063C2.77863 11.3332 2.7373 11.2959 2.7253 11.2345C2.38664 9.50256 1.50531 4.9893 1.46265 4.74397C1.43598 4.54797 1.26932 4.39864 1.06665 4.39864H0.533326C0.53066 4.39864 0.521326 4.39864 0.50266 4.39331C0.453327 4.38131 0.399995 4.33598 0.399995 4.26398V3.73065C0.399995 3.65732 0.459994 3.59732 0.533326 3.59732H12.9332ZM13.3332 3.19733H0.533326C0.238664 3.19733 0 3.43599 0 3.73065V4.26398C0 4.51464 0.174664 4.72397 0.407995 4.7813C0.447994 4.79064 0.49066 4.7973 0.533326 4.7973H1.06799C1.06799 4.83463 2.3333 11.3105 2.3333 11.3105C2.3813 11.5559 2.57997 11.7319 2.81063 11.7319H11.2079L12.5692 4.7973H13.1652V4.7813L13.3332 4.26398V3.19733Z" fill="#424242"/>
<path opacity="0.2" d="M3.99994 5.86523V10.1332H3.41328L2.46529 5.86523H3.99994ZM3.99994 5.59857H2.46529C2.29463 5.59857 2.16796 5.75724 2.20529 5.92257L3.15328 10.1905C3.17995 10.3132 3.28795 10.3998 3.41328 10.3998H3.99994C4.1466 10.3998 4.2666 10.2798 4.2666 10.1332V5.86523C4.2666 5.71724 4.1466 5.59857 3.99994 5.59857Z" fill="#424242"/>
<path opacity="0.2" d="M10.3345 5.86523L9.38653 10.1332H8.79987V5.86523H10.3345ZM10.3345 5.59857H8.79987C8.6532 5.59857 8.5332 5.71857 8.5332 5.86523V10.1332C8.5332 10.2798 8.6532 10.3998 8.79987 10.3998H9.38653C9.51186 10.3998 9.61986 10.3132 9.64652 10.1905L10.5945 5.92257C10.6318 5.7559 10.5038 5.59857 10.3345 5.59857Z" fill="#424242"/>
<path opacity="0.2" d="M7.16803 5.86523L6.69337 10.1332H6.10405L5.62939 5.86523H7.16803ZM7.16803 5.59857H5.63072C5.47205 5.59857 5.34806 5.73724 5.36539 5.89457L5.84005 10.1625C5.85472 10.2972 5.96938 10.3998 6.10538 10.3998H6.6947C6.8307 10.3998 6.94537 10.2972 6.96003 10.1625L7.43469 5.89457C7.45069 5.7359 7.32803 5.59857 7.16803 5.59857Z" fill="#424242"/>
<path d="M13.9369 0.478811C13.6223 0.584143 13.3783 0.836139 13.2836 1.15347L10.1556 11.58C10.117 11.7106 10.129 11.8506 10.189 11.972L10.677 12.948C10.7663 13.1253 10.637 13.3346 10.4383 13.3346H1.06642C0.754423 13.3346 0.505093 13.6026 0.535759 13.9199C0.562425 14.1973 0.810422 14.4013 1.08909 14.4013H11.7129C11.8423 14.4013 11.9729 14.3626 12.0729 14.2799C12.2703 14.1146 12.3183 13.8453 12.2103 13.6293L11.4569 12.124C11.3156 11.8426 11.2876 11.5173 11.3783 11.216L14.2569 1.61746C14.2769 1.54813 14.3249 1.49346 14.3876 1.46013L13.9449 0.477478L13.9369 0.478811Z" fill="url(#paint1_linear_147_1626)"/>
<path d="M15.9263 0.260079C15.7996 0.0387487 15.5263 -0.0519166 15.2849 0.0294155L13.9463 0.476075L14.3889 1.45873C14.4023 1.45206 14.4143 1.44406 14.4289 1.44006L15.6343 1.0374C15.9489 0.932068 16.1009 0.564074 15.9263 0.260079Z" fill="#F57C00"/>
<path opacity="0.2" d="M15.4622 0.266785C15.5609 0.266785 15.6502 0.314784 15.6942 0.392116C15.7516 0.492115 15.7316 0.580113 15.7142 0.625446C15.6849 0.700111 15.6249 0.758777 15.5489 0.78411L14.3436 1.18677C14.3089 1.19877 14.2836 1.2121 14.2622 1.2241C14.1342 1.2921 14.0422 1.4041 14.0009 1.5401L11.1236 11.1373C11.013 11.5053 11.0476 11.8973 11.2183 12.2413L11.9716 13.7466C12.0276 13.8572 11.9983 13.9919 11.9009 14.0732C11.8556 14.1119 11.7876 14.1332 11.7129 14.1332H1.08908C0.939754 14.1332 0.813089 14.0279 0.801089 13.8932C0.793089 13.8159 0.818422 13.7426 0.869088 13.6866C0.919754 13.6306 0.99042 13.5999 1.06642 13.5999H10.4383C10.625 13.5999 10.7943 13.5052 10.8916 13.3466C10.989 13.1879 10.9983 12.9946 10.9156 12.8279L10.4276 11.8519C10.397 11.7906 10.3916 11.7213 10.4103 11.6559L13.5383 1.22944C13.6089 0.994774 13.7889 0.809443 14.0209 0.732111L14.0289 0.729444L15.3676 0.282784C15.3996 0.272118 15.4302 0.266785 15.4622 0.266785ZM15.4622 0.00012207C15.4022 0.00012207 15.3422 0.00945523 15.2836 0.0294549L13.9449 0.476115L13.9369 0.478781C13.6223 0.584113 13.3783 0.836109 13.2836 1.15344L10.1556 11.5799C10.117 11.7106 10.129 11.8506 10.189 11.9719L10.677 12.9479C10.7663 13.1253 10.637 13.3346 10.4383 13.3346H1.06642C0.754423 13.3346 0.505093 13.6026 0.535759 13.9199C0.562425 14.1972 0.810422 14.4012 1.08908 14.4012H11.7129C11.8423 14.4012 11.9729 14.3626 12.0729 14.2799C12.2703 14.1146 12.3183 13.8452 12.2103 13.6292L11.4569 12.1239C11.3156 11.8426 11.2876 11.5173 11.3783 11.216L14.2569 1.61743C14.2769 1.5481 14.3249 1.49343 14.3876 1.4601C14.4009 1.45343 14.4129 1.44543 14.4276 1.44143L15.6329 1.03877C15.9462 0.933441 16.0982 0.565447 15.9249 0.261451C15.8302 0.0921207 15.6502 0.00012207 15.4622 0.00012207Z" fill="#424242"/>
<path d="M3.19995 15.9999C3.78905 15.9999 4.26661 15.5223 4.26661 14.9332C4.26661 14.3441 3.78905 13.8666 3.19995 13.8666C2.61086 13.8666 2.1333 14.3441 2.1333 14.9332C2.1333 15.5223 2.61086 15.9999 3.19995 15.9999Z" fill="#37474F"/>
<path d="M10.1331 15.9999C10.7222 15.9999 11.1997 15.5223 11.1997 14.9332C11.1997 14.3441 10.7222 13.8666 10.1331 13.8666C9.54396 13.8666 9.06641 14.3441 9.06641 14.9332C9.06641 15.5223 9.54396 15.9999 10.1331 15.9999Z" fill="#37474F"/>
<path d="M3.46649 15.4666H2.93317C2.7865 15.4666 2.6665 15.3466 2.6665 15.1999V13.8666H3.73316V15.1999C3.73316 15.3466 3.61316 15.4666 3.46649 15.4666Z" fill="#B0BEC5"/>
<path d="M3.20026 14.9332C3.34753 14.9332 3.46692 14.8138 3.46692 14.6665C3.46692 14.5192 3.34753 14.3998 3.20026 14.3998C3.05298 14.3998 2.93359 14.5192 2.93359 14.6665C2.93359 14.8138 3.05298 14.9332 3.20026 14.9332Z" fill="#FAFAFA" stroke="#757575" stroke-width="0.916654" stroke-miterlimit="10"/>
<path d="M10.3996 15.4666H9.86627C9.71961 15.4666 9.59961 15.3466 9.59961 15.1999V13.8666H10.6663V15.1999C10.6663 15.3466 10.5463 15.4666 10.3996 15.4666Z" fill="#B0BEC5"/>
<path d="M10.1334 14.9332C10.2806 14.9332 10.4 14.8138 10.4 14.6665C10.4 14.5192 10.2806 14.3998 10.1334 14.3998C9.98609 14.3998 9.8667 14.5192 9.8667 14.6665C9.8667 14.8138 9.98609 14.9332 10.1334 14.9332Z" fill="#FAFAFA" stroke="#757575" stroke-width="0.916654" stroke-miterlimit="10"/>
<defs>
<linearGradient id="paint0_linear_147_1626" x1="6.66645" y1="2.98146" x2="6.66645" y2="12.4761" gradientUnits="userSpaceOnUse">
<stop stop-color="#FFA726"/>
<stop offset="1" stop-color="#FB8C00"/>
</linearGradient>
<linearGradient id="paint1_linear_147_1626" x1="7.46074" y1="-2.05422" x2="7.46074" y2="16.6732" gradientUnits="userSpaceOnUse">
<stop stop-color="#90A4AE"/>
<stop offset="1" stop-color="#607D8B"/>
</linearGradient>
</defs>
</svg>
