<svg width="36" height="37" viewBox="0 0 36 37" fill="none" xmlns="http://www.w3.org/2000/svg">
<rect y="0.330322" width="36" height="36" rx="18" fill="#C1DCC3"/>
<path fill-rule="evenodd" clip-rule="evenodd" d="M18.2418 15.0859L12.1569 21.1687C11.8328 21.4554 11.6322 21.8564 11.6 22.2232V24.731L14.0512 24.7325C14.4786 24.7023 14.8764 24.5034 15.1958 24.138L21.2453 18.0892L18.2418 15.0859ZM19.3733 13.9548L22.3767 16.958L24.2918 15.0431C24.3611 14.9738 24.4 14.8798 24.4 14.7819C24.4 14.6839 24.3611 14.5899 24.2918 14.5207L21.8089 12.038C21.7404 11.969 21.6471 11.9301 21.5498 11.9301C21.4526 11.9301 21.3593 11.969 21.2908 12.038L19.3733 13.9548ZM21.5498 10.3303C22.0736 10.3303 22.5757 10.5394 22.9425 10.909L25.4232 13.3894C25.7925 13.7587 26 14.2596 26 14.7819C26 15.3041 25.7925 15.805 25.4232 16.1743L16.366 25.2276C15.8072 25.8721 15.0151 26.2681 14.1077 26.3303H10V25.5304L10.0026 22.1588C10.0708 21.3153 10.4629 20.531 11.0612 20.0039L20.1563 10.91C20.5251 10.539 21.0267 10.3303 21.5498 10.3303Z" fill="#388E3C"/>
</svg>
