<svg width="56" height="56" viewBox="0 0 56 56" fill="none" xmlns="http://www.w3.org/2000/svg">
<circle opacity="0.64" cx="28" cy="28" r="28" fill="#FF7700"/>
<path d="M18.94 46C33.58 45.94 45.94 33.52 46 18.88L10 10L18.94 46Z" fill="#F6DA77"/>
<path d="M17.8001 41.3196L18.0401 42.5796C29.4401 41.9796 41.3801 33.8196 42.5801 17.9796L41.3801 17.7996C39.8201 29.9196 29.9801 39.8196 17.8001 41.3196Z" fill="#860D16"/>
<path d="M18.04 42.5204L18.88 45.9404C33.52 46.0004 46 33.5204 46 18.7604L42.58 17.9204C41.26 32.0204 32.02 41.2004 18.04 42.5204Z" fill="#C98E52"/>
<path d="M22.1797 16.7197C22.1797 15.6997 22.5397 14.7997 23.2597 14.0797C23.5597 13.7797 24.0398 13.7797 24.2797 14.0797C24.5798 14.3797 24.5798 14.8597 24.2797 15.0997C23.4397 15.9397 23.4397 17.4397 24.2797 18.2797C24.6997 18.6997 25.2398 18.9397 25.8398 18.9397C26.4398 18.9397 26.9798 18.6997 27.3998 18.2797C27.6997 17.9797 28.1798 17.9797 28.4198 18.2797C28.7198 18.5797 28.7198 19.0597 28.4198 19.2997C27.6998 20.0197 26.7997 20.3797 25.7797 20.3797C24.7597 20.3797 23.8598 20.0197 23.1398 19.2997C22.5998 18.6397 22.1797 17.6797 22.1797 16.7197ZM34.0598 31.7797H33.7598C33.5798 31.7197 33.4598 31.6597 33.3398 31.4797C33.2198 31.2997 33.2197 31.1197 33.2797 30.9997C33.3997 30.5197 33.2798 30.0397 33.0398 29.6197C32.7998 29.1997 32.3798 28.8997 31.8998 28.7797C30.9398 28.5397 29.9197 29.1997 29.6797 30.1597C29.6197 30.5197 29.1997 30.7597 28.8998 30.6397C28.5398 30.5797 28.2998 30.2197 28.4198 29.8597C28.7198 28.6597 29.6198 27.7597 30.8198 27.4597C31.2998 27.3397 31.7798 27.3397 32.1998 27.4597C33.0398 27.6397 33.6998 28.1797 34.1798 28.8997C34.6598 29.6197 34.7798 30.4597 34.5998 31.2997C34.4798 31.4797 34.2998 31.7197 34.0598 31.7797ZM16.6597 34.9597V34.6597C16.7197 34.4797 16.7797 34.3597 16.9597 34.2997C17.0798 34.2397 17.2598 34.1797 17.4398 34.2397C17.8598 34.3597 18.3398 34.2997 18.7597 34.0597C19.1797 33.8197 19.4798 33.4597 19.5998 32.9797C19.8398 32.0797 19.2397 31.0597 18.3997 30.8197C18.0998 30.7597 17.8597 30.3397 17.9797 30.0397C18.0998 29.6797 18.3997 29.4997 18.7597 29.6197C19.8397 29.9197 20.7398 30.8197 20.9198 31.9597C20.9798 32.3797 20.9797 32.8597 20.8597 33.2797C20.6797 34.0597 20.1397 34.7197 19.4797 35.0797C18.7597 35.4997 17.9797 35.5597 17.1998 35.3797C16.8997 35.3797 16.7197 35.1997 16.6597 34.9597Z" fill="#83BF4F"/>
<path d="M25.4801 30.8805C23.0201 31.7205 20.3801 30.4005 19.5401 27.8805C18.7001 25.3605 20.0201 22.6605 22.4801 21.8805C24.9401 21.0405 27.5801 22.3605 28.4201 24.8805C29.2601 27.3405 27.9401 30.0405 25.4801 30.8805ZM25.0001 38.3805C23.5001 38.8605 21.9401 38.0805 21.4001 36.5805C20.9201 35.0805 21.7001 33.4605 23.2001 32.9805C24.7001 32.5005 26.2601 33.2805 26.8001 34.7805C27.2801 36.2205 26.5001 37.8405 25.0001 38.3805ZM35.8001 26.0205C33.8201 26.6805 31.6001 25.6005 30.9401 23.5605C30.2801 21.5205 31.3601 19.3005 33.3401 18.6405C35.3201 17.9805 37.5401 19.0605 38.2001 21.1005C38.8601 23.1405 37.7801 25.3605 35.8001 26.0205ZM14.8001 29.2605L13.3601 23.4405C14.9201 22.9005 16.7801 23.9805 17.2001 25.5405C17.6801 27.4605 16.3001 28.7205 14.8001 29.2605ZM19.0001 20.3805C16.9601 21.1005 14.6801 19.9605 14.0201 17.8605C13.3001 15.7605 14.4401 13.4805 16.5401 12.7605C18.5801 12.0405 20.8601 13.1805 21.5201 15.2805C22.1801 17.3805 21.0401 19.6605 19.0001 20.3805Z" fill="#B21725"/>
<path d="M42.5801 17.9204C42.5201 21.1004 41.9201 24.2804 40.7201 27.2804C39.5801 30.2804 37.7801 33.1004 35.4401 35.3804C33.1601 37.6604 30.3401 39.4604 27.3401 40.6604C24.3401 41.8604 21.1601 42.4604 17.9801 42.5204C21.1001 41.9804 24.1601 41.1404 26.9801 39.8204C29.8001 38.5004 32.4401 36.7604 34.6001 34.5404C36.8201 32.3804 38.5601 29.7404 39.8201 26.9204C41.2001 24.1004 42.0401 21.0404 42.5801 17.9204Z" fill="#E0A763"/>
<path d="M39.1382 18.6967L40.3262 19.8847L39.1382 21.0727L37.9502 19.8847L39.1382 18.6967ZM35.7734 26.4523L36.9614 27.6403L35.7734 28.8283L34.5854 27.6403L35.7734 26.4523ZM31.331 16.3651L32.519 17.5531L31.331 18.7411L30.143 17.5531L31.331 16.3651ZM27.9188 20.4691L29.1068 21.6571L27.9188 22.8451L26.7308 21.6571L27.9188 20.4691ZM27.7658 31.1473L28.9538 32.3353L27.7658 33.5233L26.5778 32.3353L27.7658 31.1473ZM19.2752 38.0347L20.4632 39.2227L19.2752 40.4107L18.0872 39.2227L19.2752 38.0347ZM20.4086 20.3905L21.5966 21.5785L20.4086 22.7665L19.2206 21.5785L20.4086 20.3905ZM16.058 21.2407L17.246 22.4287L16.058 23.6167L14.87 22.4287L16.058 21.2407ZM12.2552 11.2231L13.4432 12.4111L12.2552 13.5991L11.0672 12.4111L12.2552 11.2231ZM36.803 17.0023L37.694 17.8933L36.803 18.7843L35.912 17.8933L36.803 17.0023ZM30.464 24.5515L31.355 25.4425L30.464 26.3335L29.573 25.4425L30.464 24.5515ZM30.4268 32.6653L31.3178 33.5563L30.4268 34.4473L29.5358 33.5563L30.4268 32.6653ZM25.5014 16.6819L26.3924 17.5729L25.5014 18.4639L24.6104 17.5729L25.5014 16.6819ZM21.9398 13.0363L22.8308 13.9273L21.9404 14.8183L21.0494 13.9273L21.9398 13.0363ZM14.5088 11.6383L15.3998 12.5293L14.5088 13.4203L13.6178 12.5293L14.5088 11.6383ZM14.0282 19.3459L14.9192 20.2369L14.0276 21.1279L13.1372 20.2369L14.0282 19.3459ZM18.1922 27.0871L19.0832 27.9781L18.1922 28.8691L17.3012 27.9781L18.1922 27.0871ZM16.6622 30.8455L17.5532 31.7365L16.6622 32.6275L15.7718 31.7365L16.6622 30.8455ZM20.0978 35.8459L20.9882 36.7369L20.0972 37.6279L19.2062 36.7369L20.0978 35.8459Z" fill="#FFAB41"/>
</svg>
