<svg width="24" height="23" viewBox="0 0 24 23" fill="none" xmlns="http://www.w3.org/2000/svg">
<path fill-rule="evenodd" clip-rule="evenodd" d="M10.284 0.405975C10.8225 0.159618 11.4078 0.0321045 12 0.0321045C12.5922 0.0321045 13.1775 0.159618 13.716 0.405975C17.599 2.18398 20.4915 4.72698 21.8845 6.09898C22.6355 6.83848 23.037 7.82448 23.0935 8.84198C23.1625 10.0955 23.25 12.1285 23.25 14.4215C23.25 16.0395 23.2065 17.5275 23.1565 18.7035C23.1201 19.607 22.7424 20.463 22.0996 21.099C21.4569 21.735 20.5968 22.1036 19.693 22.1305C17.954 22.1905 15.3695 22.25 12 22.25C8.6305 22.25 6.046 22.19 4.307 22.1305C3.40317 22.1036 2.54314 21.735 1.90038 21.099C1.25761 20.463 0.879928 19.607 0.8435 18.7035C0.782366 17.277 0.751193 15.8493 0.75 14.4215C0.75 12.1285 0.8375 10.0955 0.9065 8.84198C0.963 7.82448 1.3645 6.83848 2.1155 6.09898C3.5085 4.72698 6.4015 2.18398 10.284 0.405975ZM8 17C7.73478 17 7.48043 17.1053 7.29289 17.2929C7.10536 17.4804 7 17.7348 7 18C7 18.2652 7.10536 18.5195 7.29289 18.7071C7.48043 18.8946 7.73478 19 8 19H16C16.2652 19 16.5196 18.8946 16.7071 18.7071C16.8946 18.5195 17 18.2652 17 18C17 17.7348 16.8946 17.4804 16.7071 17.2929C16.5196 17.1053 16.2652 17 16 17H8Z" fill="black"/>
</svg>
