<svg width="23" height="23" viewBox="0 0 23 23" fill="none" xmlns="http://www.w3.org/2000/svg">
<path d="M7.66669 18H15.6667M13.0742 1.08001C16.6917 2.68551 19.4337 4.79501 20.8512 6.01351C21.5677 6.62951 21.9672 7.51601 22.0162 8.45951C22.0847 9.75501 22.1667 11.7825 22.1667 14C22.1667 15.706 22.1182 17.353 22.0647 18.6465C22.0372 19.3667 21.7373 20.0496 21.2258 20.5572C20.7142 21.0649 20.0291 21.3595 19.3087 21.3815C17.5787 21.4415 15.0112 21.5 11.6667 21.5C8.32219 21.5 5.75519 21.441 4.02469 21.382C3.30432 21.36 2.61916 21.0654 2.1076 20.5577C1.59604 20.0501 1.29622 19.3672 1.26869 18.647C1.20338 17.0989 1.16938 15.5495 1.16669 14C1.16669 11.7825 1.24919 9.75501 1.31669 8.45951C1.36669 7.51601 1.76569 6.62951 2.48219 6.01351C3.89969 4.79451 6.64219 2.68551 10.2592 1.08001C10.7024 0.883347 11.1818 0.781738 11.6667 0.781738C12.1515 0.781738 12.631 0.883347 13.0742 1.08001Z" stroke="#D3D3D3" stroke-width="1.5" stroke-linecap="round" stroke-linejoin="round"/>
</svg>
