<svg width="25" height="24" viewBox="0 0 25 24" fill="none" xmlns="http://www.w3.org/2000/svg">
<path fill-rule="evenodd" clip-rule="evenodd" d="M10.9505 1.406C11.489 1.15964 12.0743 1.03213 12.6665 1.03213C13.2587 1.03213 13.844 1.15964 14.3825 1.406C18.2655 3.184 21.158 5.727 22.551 7.099C23.302 7.8385 23.7035 8.8245 23.76 9.842C23.829 11.0955 23.9165 13.1285 23.9165 15.4215C23.9165 17.0395 23.873 18.5275 23.823 19.7035C23.7866 20.607 23.4089 21.4631 22.7661 22.0991C22.1234 22.7351 21.2633 23.1036 20.3595 23.1305C18.6205 23.1905 16.036 23.25 12.6665 23.25C9.297 23.25 6.7125 23.19 4.9735 23.1305C4.06967 23.1036 3.20965 22.7351 2.56688 22.0991C1.92412 21.4631 1.54643 20.607 1.51 19.7035C1.44887 18.277 1.4177 16.8493 1.4165 15.4215C1.4165 13.1285 1.504 11.0955 1.573 9.842C1.6295 8.8245 2.031 7.8385 2.782 7.099C4.175 5.727 7.068 3.184 10.9505 1.406ZM8.6665 18C8.40129 18 8.14693 18.1054 7.9594 18.2929C7.77186 18.4804 7.6665 18.7348 7.6665 19C7.6665 19.2652 7.77186 19.5196 7.9594 19.7071C8.14693 19.8946 8.40129 20 8.6665 20H16.6665C16.9317 20 17.1861 19.8946 17.3736 19.7071C17.5611 19.5196 17.6665 19.2652 17.6665 19C17.6665 18.7348 17.5611 18.4804 17.3736 18.2929C17.1861 18.1054 16.9317 18 16.6665 18H8.6665Z" fill="#388E3C"/>
</svg>
