<svg width="56" height="56" viewBox="0 0 56 56" fill="none" xmlns="http://www.w3.org/2000/svg">
<circle opacity="0.64" cx="28" cy="28" r="28" fill="#0ABED2"/>
<path fill-rule="evenodd" clip-rule="evenodd" d="M13 43.8728V45.5504C13 45.8709 13.5747 45.5437 13.8955 45.5437H42.9122C43.2329 45.5437 43.2027 45.8709 43.2027 45.5504V10.7301C43.2027 10.409 43.2329 10 42.9122 10H13.8955C13.5747 10 13 10.409 13 10.7301V43.8728Z" fill="#EDEDED"/>
<path opacity="0.15" fill-rule="evenodd" clip-rule="evenodd" d="M42.6305 10.019H38.7619V37.4955C38.7619 40.0248 36.7118 42.075 34.1826 42.075H13.2485V43.8726V45.5502C13.2485 45.7987 13.4501 46.0001 13.6988 46.0001H42.8912C43.1397 46.0001 43.3413 45.7987 43.3413 45.5502V10.7298C43.3413 10.3389 43.0214 10.019 42.6305 10.019Z" fill="#020403"/>
<path fill-rule="evenodd" clip-rule="evenodd" d="M41.3674 19.0107H15.4305C15.0974 19.0107 14.8273 18.7599 14.8273 18.4268C14.8273 18.0936 15.0974 17.8428 15.4305 17.8428H41.3674C41.7005 17.8428 41.9705 18.0936 41.9705 18.4268C41.9705 18.7599 41.7005 19.0107 41.3674 19.0107Z" fill="#142A3B"/>
<path fill-rule="evenodd" clip-rule="evenodd" d="M36.1659 26.094C37.4802 27.8018 38.3137 29.9133 38.3137 32.2358C38.3137 37.6778 33.9022 42.0899 28.4599 42.0899C23.0177 42.0899 18.6062 37.6778 18.6062 32.2358C18.6062 26.794 23.0177 22.3818 28.4599 22.3818C29.7191 22.3818 30.9235 22.6181 32.0299 23.049C32.0299 23.049 34.1776 23.5106 36.1659 26.094Z" fill="#2476FF"/>
<path fill-rule="evenodd" clip-rule="evenodd" d="M30.8722 39.8952C30.649 39.8952 30.4344 39.7704 30.3299 39.5564C30.1837 39.2567 30.3084 38.8958 30.6077 38.7497C32.4023 37.875 33.7488 36.3536 34.3992 34.4659C35.0495 32.5785 34.9258 30.5506 34.0511 28.7559C33.905 28.4565 34.0295 28.0954 34.3291 27.9495C34.6279 27.803 34.9894 27.928 35.1356 28.2272C36.1517 30.3115 36.295 32.6668 35.5399 34.8589C34.7845 37.0514 33.2205 38.8182 31.1362 39.8343C31.0511 39.8755 30.9612 39.8952 30.8722 39.8952Z" fill="#F4FAFF"/>
<path opacity="0.35" fill-rule="evenodd" clip-rule="evenodd" d="M21.223 32.2358C21.223 27.2386 24.9467 23.1196 29.769 22.4785C29.3397 22.4212 28.9049 22.3818 28.4599 22.3818C23.0177 22.3818 18.6062 26.7939 18.6062 32.2358C18.6062 37.6778 23.0177 42.0899 28.4599 42.0899C28.9048 42.0899 29.3392 42.0503 29.7682 41.9931C24.9461 41.3516 21.223 37.2331 21.223 32.2358Z" fill="#020403"/>
<path opacity="0.35" fill-rule="evenodd" clip-rule="evenodd" d="M33.1631 32.8898C33.1631 34.672 34.7504 36.1672 37.3367 36.6016C37.9623 35.455 38.3137 34.2038 38.3137 32.8898C38.3137 31.5731 37.9447 30.3281 37.3126 29.1821C34.7406 29.6213 33.1631 31.1124 33.1631 32.8898Z" fill="#020403"/>
<path fill-rule="evenodd" clip-rule="evenodd" d="M35.1256 32.2355C35.1256 34.0179 36.3098 35.5127 38.239 35.947C38.7058 34.8009 38.9679 33.5495 38.9679 32.2355C38.9679 30.9188 38.6926 29.6738 38.2212 28.5278C36.3024 28.9669 35.1256 30.4581 35.1256 32.2355Z" fill="#EDEDED"/>
<path fill-rule="evenodd" clip-rule="evenodd" d="M17.839 15.5072H15.5029V14.1724H17.839V15.5072Z" fill="#FF3A2F"/>
<path fill-rule="evenodd" clip-rule="evenodd" d="M21.5102 15.5072H19.6747V14.1724H21.5102V15.5072Z" fill="#FF3A2F"/>
</svg>
