<svg width="56" height="56" viewBox="0 0 56 56" fill="none" xmlns="http://www.w3.org/2000/svg">
<circle opacity="0.64" cx="28" cy="28" r="28" fill="#D20A61"/>
<path d="M36.7491 12.7165L11.4201 28.8466C10.9109 29.1709 10.7609 29.8467 11.0853 30.3559L17.5206 40.4612C17.8449 40.9705 18.5206 41.1204 19.0299 40.7961L44.3588 24.666C44.8681 24.3417 45.018 23.666 44.6937 23.1567L38.2584 13.0514C37.9341 12.5421 37.2583 12.3922 36.7491 12.7165Z" fill="#91CD86"/>
<path d="M39.9645 15.7348L42.988 20.4783C42.5367 20.7658 42.1463 21.1393 41.8393 21.5777C41.5323 22.016 41.3146 22.5105 41.1987 23.033C41.0828 23.5554 41.0709 24.0956 41.1638 24.6226C41.2567 25.1497 41.4525 25.6532 41.74 26.1046C41.7746 26.1593 41.811 26.213 41.8475 26.2658L21.5425 39.1973C21.5097 39.1427 21.476 39.0862 21.4413 39.0315C21.1541 38.5799 20.7807 38.1893 20.3425 37.882C19.9043 37.5747 19.4098 37.3568 18.8873 37.2406C18.3648 37.1245 17.8246 37.1124 17.2975 37.2051C16.7703 37.2977 16.2666 37.4934 15.8151 37.7807L12.7915 33.0354C13.2429 32.7479 13.6333 32.3744 13.9403 31.9361C14.2473 31.4977 14.465 31.0032 14.5809 30.4808C14.6968 29.9583 14.7086 29.4181 14.6157 28.8911C14.5228 28.3641 14.3271 27.8605 14.0396 27.4091C14.0049 27.3545 13.9685 27.3007 13.9321 27.2479L34.2334 14.3164C34.2662 14.3711 34.2999 14.4275 34.3346 14.4822C34.6217 14.9345 34.9951 15.3257 35.4336 15.6335C35.872 15.9412 36.3669 16.1596 36.8898 16.2759C37.4127 16.3922 37.9534 16.4043 38.481 16.3115C39.0086 16.2186 39.5127 16.0227 39.9645 15.7348Z" fill="#A9EA9C"/>
<path d="M18.4461 41.5158C18.1699 41.5163 17.8981 41.4469 17.6559 41.3143C17.4137 41.1816 17.2089 40.9899 17.0605 40.757L10.6244 30.6505C10.3908 30.2837 10.3124 29.8392 10.4066 29.4146C10.5007 28.9901 10.7596 28.6203 11.1263 28.3867L36.4518 12.2567C36.8186 12.0231 37.2631 11.9448 37.6877 12.0389C38.1122 12.133 38.482 12.3919 38.7156 12.7587L45.1508 22.8643C45.3844 23.231 45.4628 23.6756 45.3687 24.1001C45.2745 24.5246 45.0156 24.8944 44.6489 25.1281L19.3234 41.258C19.0616 41.4259 18.7572 41.5153 18.4461 41.5158ZM37.3309 13.093C37.2279 13.0929 37.1271 13.1223 37.0403 13.1777L11.7139 29.3086C11.5923 29.387 11.5068 29.5104 11.476 29.6518C11.4453 29.7932 11.4719 29.9411 11.5499 30.0629L17.9824 40.1685C18.061 40.2899 18.1845 40.3753 18.3259 40.4059C18.4673 40.4364 18.615 40.4097 18.7367 40.3315L44.0659 24.207C44.1881 24.1292 44.2744 24.006 44.3058 23.8646C44.3372 23.7232 44.3112 23.575 44.2335 23.4528L37.7973 13.3453C37.7192 13.2236 37.5961 13.1378 37.4548 13.1067C37.4142 13.0975 37.3726 13.0929 37.3309 13.093Z" fill="#1D6855"/>
<path d="M13.117 29.9464L17.6181 27.0795C17.7657 26.9884 17.6291 26.7488 17.4806 26.8436L12.9785 29.7068C12.8309 29.7979 12.9676 30.0375 13.116 29.9427L13.117 29.9464Z" fill="white"/>
<path d="M18.2727 26.6585L20.4828 25.251C20.6304 25.1599 20.4937 24.9203 20.3452 25.0151L18.1342 26.4225C17.9867 26.5136 18.1233 26.7532 18.2718 26.6585H18.2727Z" fill="white"/>
<path d="M19.0246 39.5819L29.4718 32.9317L30.9294 32.0006C31.077 31.9095 30.9403 31.67 30.7918 31.7647L20.3492 38.4186L18.8916 39.3496C18.744 39.4407 18.8806 39.6803 19.0291 39.5855L19.0246 39.5819Z" fill="white"/>
<path d="M34.0658 30.0602L41.7691 25.1545L42.8678 24.4549C43.0154 24.3638 42.8787 24.1242 42.7302 24.2189L35.0278 29.1264L33.9292 29.8261C33.7816 29.9172 33.9182 30.1567 34.0667 30.062L34.0658 30.0602Z" fill="white"/>
<path d="M28.9005 27.0074C28.6208 26.5683 28.1808 26.4362 27.5076 26.5838C27.0066 26.6749 26.7788 26.7086 26.6549 26.5091C26.5638 26.3625 26.6148 26.1229 26.9209 25.9279C27.1391 25.7833 27.3893 25.6938 27.6497 25.6674L27.4529 25.006C27.1653 25.0398 26.8894 25.1395 26.6467 25.2975L26.3078 24.7637L25.7749 25.1026L26.1521 25.6956C25.7785 26.1165 25.7266 26.6148 25.9881 27.0257C26.2759 27.4812 26.787 27.5458 27.4256 27.4019C27.8747 27.2844 28.0979 27.3108 28.2164 27.493C28.3521 27.7062 28.2637 27.9485 27.9431 28.1525C27.672 28.3182 27.3678 28.4224 27.0521 28.4577L27.2571 29.1319C27.5711 29.0897 27.8734 28.985 28.1462 28.8239L28.4869 29.3596L29.0198 29.0207L28.9351 28.8877L28.6536 28.445C29.1401 27.9704 29.1702 27.431 28.9005 27.0074Z" fill="#34B67A"/>
<path d="M27.4076 32.4241C26.4772 32.4255 25.5624 32.1845 24.7534 31.7248C23.9445 31.265 23.2693 30.6024 22.7944 29.8022C22.3195 29.0021 22.0613 28.092 22.0452 27.1616C22.0292 26.2313 22.2558 25.3128 22.7028 24.4968C23.1498 23.6807 23.8018 22.9952 24.5944 22.5078C25.387 22.0204 26.293 21.748 27.2229 21.7174C28.1529 21.6867 29.0748 21.899 29.8978 22.3331C30.7207 22.7673 31.4164 23.4084 31.9161 24.1933C32.4315 25.0021 32.7201 25.9345 32.7518 26.8931C32.7836 27.8516 32.5572 28.8011 32.0965 29.6422C31.6357 30.4834 30.9575 31.1853 30.1327 31.6747C29.3078 32.164 28.3667 32.4228 27.4076 32.4241ZM27.3903 22.6236C26.4036 22.6251 25.4453 22.9548 24.6665 23.5608C23.8877 24.1668 23.3326 25.0146 23.0886 25.9707C22.8446 26.9269 22.9256 27.937 23.3188 28.8421C23.7121 29.7471 24.3952 30.4956 25.2606 30.9698C26.126 31.4439 27.1245 31.6167 28.0989 31.461C29.0733 31.3052 29.9683 30.8298 30.6427 30.1095C31.3172 29.3892 31.733 28.465 31.8245 27.4825C31.916 26.5 31.678 25.5149 31.1482 24.6825C30.8359 24.1892 30.4289 23.7628 29.9507 23.4278C29.4725 23.0929 28.9327 22.8561 28.3624 22.7311C28.0432 22.66 27.7173 22.6239 27.3903 22.6236Z" fill="#91CD86"/>
<path d="M40.9548 20.1029L11.9627 27.9255C11.3798 28.0828 11.0347 28.6829 11.192 29.2658L14.313 40.8325C14.4702 41.4154 15.0703 41.7605 15.6532 41.6032L44.6453 33.7805C45.2282 33.6232 45.5732 33.0232 45.4159 32.4403L42.295 20.8735C42.1377 20.2906 41.5377 19.9456 40.9548 20.1029Z" fill="#91CD86"/>
<path d="M43.122 23.942L44.5878 29.376C44.0711 29.5153 43.5869 29.7551 43.1628 30.0816C42.7388 30.4081 42.3832 30.8149 42.1164 31.2788C41.8496 31.7427 41.6768 32.2547 41.6078 32.7854C41.5389 33.3161 41.5751 33.8552 41.7145 34.3719C41.7319 34.4347 41.7501 34.4967 41.7692 34.5541L18.5271 40.828C18.5126 40.7661 18.4971 40.7023 18.4807 40.6395C18.3414 40.1228 18.1016 39.6385 17.7751 39.2145C17.4486 38.7904 17.0418 38.4349 16.5779 38.168C16.114 37.9012 15.602 37.7284 15.0713 37.6595C14.5406 37.5905 14.0015 37.6268 13.4848 37.7662L12.019 32.3322C12.5358 32.1928 13.02 31.9531 13.444 31.6266C13.8681 31.3001 14.2237 30.8933 14.4905 30.4294C14.7573 29.9655 14.9301 29.4535 14.999 28.9228C15.068 28.3921 15.0317 27.853 14.8923 27.3363C14.875 27.2734 14.8568 27.2115 14.8376 27.1541L38.0797 20.8801C38.0943 20.9421 38.1098 21.0058 38.1262 21.0687C38.2655 21.5854 38.5052 22.0696 38.8317 22.4937C39.1582 22.9177 39.565 23.2733 40.0289 23.5401C40.4929 23.8069 41.0048 23.9798 41.5355 24.0487C42.0662 24.1176 42.6053 24.0814 43.122 23.942Z" fill="#A9EA9C"/>
<path d="M15.3667 42.188C15.0065 42.1868 14.6567 42.0674 14.3709 41.8482C14.085 41.629 13.879 41.3221 13.7843 40.9746L10.6642 29.405C10.6082 29.197 10.5938 28.98 10.6218 28.7664C10.6497 28.5528 10.7195 28.3467 10.8271 28.1601C10.9348 27.9735 11.0781 27.8099 11.249 27.6787C11.4198 27.5475 11.6149 27.4512 11.8229 27.3954L40.8124 19.5773C41.0203 19.5212 41.2373 19.5065 41.4509 19.5343C41.6644 19.562 41.8705 19.6315 42.0572 19.7389C42.2439 19.8462 42.4076 19.9893 42.539 20.1599C42.6704 20.3306 42.7669 20.5254 42.823 20.7333L45.9431 32.3029C45.9992 32.5108 46.0139 32.7278 45.9861 32.9413C45.9584 33.1549 45.8889 33.3609 45.7815 33.5476C45.6742 33.7343 45.5311 33.8981 45.3605 34.0295C45.1898 34.1609 44.995 34.2574 44.7871 34.3135L15.7939 42.1316C15.6546 42.1691 15.511 42.1881 15.3667 42.188ZM41.2388 20.6131C41.1911 20.6132 41.1436 20.6197 41.0976 20.6322L12.1044 28.4531C12.0348 28.4717 11.9695 28.504 11.9124 28.548C11.8553 28.592 11.8075 28.6469 11.7716 28.7095C11.7358 28.772 11.7127 28.8411 11.7037 28.9126C11.6947 28.9842 11.6999 29.0568 11.7191 29.1263L14.8392 40.6958C14.877 40.8357 14.9687 40.9548 15.0943 41.0271C15.2198 41.0993 15.3689 41.1188 15.5088 41.0812L44.5019 33.2603C44.5719 33.2422 44.6375 33.2103 44.6951 33.1665C44.7526 33.1228 44.8009 33.0681 44.8372 33.0056C44.8735 32.943 44.897 32.8739 44.9063 32.8023C44.9157 32.7306 44.9108 32.6578 44.8918 32.588L41.7671 21.0185C41.7351 20.9025 41.6661 20.8003 41.5705 20.7272C41.475 20.6542 41.3581 20.6144 41.2379 20.614L41.2388 20.6131Z" fill="#1D6855"/>
<path d="M16.0136 40.4408L27.9712 37.215L29.6447 36.7595C29.6786 36.749 29.7072 36.7257 29.7242 36.6945C29.7413 36.6634 29.7455 36.6268 29.736 36.5925C29.7266 36.5583 29.7041 36.529 29.6734 36.5111C29.6428 36.4931 29.6063 36.4878 29.5718 36.4962L17.616 39.7266L15.9425 40.1821C15.9085 40.1926 15.88 40.2159 15.863 40.2471C15.8459 40.2783 15.8417 40.3149 15.8511 40.3491C15.8606 40.3834 15.8831 40.4126 15.9137 40.4305C15.9444 40.4485 15.9809 40.4538 16.0154 40.4454L16.0136 40.4408Z" fill="white"/>
<path d="M33.2159 35.8513L42.0333 33.4727L43.2905 33.1348C43.3244 33.1243 43.353 33.101 43.37 33.0698C43.3871 33.0386 43.3913 33.002 43.3818 32.9677C43.3724 32.9335 43.3499 32.9043 43.3192 32.8863C43.2886 32.8683 43.2521 32.863 43.2176 32.8715L34.4001 35.2501L33.1403 35.5881C33.1063 35.5985 33.0778 35.6219 33.0607 35.653C33.0437 35.6842 33.0394 35.7208 33.0489 35.7551C33.0584 35.7893 33.0808 35.8185 33.1115 35.8365C33.1422 35.8545 33.1786 35.8598 33.2131 35.8513H33.2159Z" fill="white"/>
<path d="M29.1931 31.3957C29.0574 30.8928 28.6775 30.6359 27.9906 30.5758C27.4841 30.5166 27.2618 30.4783 27.1999 30.2497C27.1543 30.082 27.2773 29.8689 27.628 29.7741C27.8807 29.7009 28.1475 29.6906 28.4051 29.7441L28.4151 29.0544C28.1306 29.0008 27.8376 29.0136 27.5588 29.0918L27.3939 28.4796L26.7845 28.6445L26.9667 29.3232C26.4847 29.6129 26.2862 30.0729 26.4128 30.543C26.5522 31.0614 27.0204 31.2782 27.6718 31.3319C28.1355 31.3538 28.3404 31.4458 28.4006 31.659C28.4662 31.9031 28.3095 32.109 27.9451 32.2056C27.6367 32.2829 27.3152 32.2916 27.0031 32.2311L26.9967 32.9362C27.3091 32.9898 27.6291 32.9802 27.9378 32.9079L28.1036 33.521L28.713 33.3561L28.672 33.204L28.5354 32.6975C29.1321 32.3859 29.3243 31.8803 29.1931 31.3957Z" fill="#34B67A"/>
<path d="M27.7329 36.3642C26.7339 36.3626 25.7552 36.0817 24.9075 35.5532C24.0598 35.0247 23.3767 34.2697 22.9355 33.3734C22.4943 32.4771 22.3125 31.4753 22.4107 30.4812C22.5089 29.4871 22.8831 28.5402 23.4911 27.7475C24.0991 26.9548 24.9166 26.348 25.8514 25.9955C26.7861 25.643 27.8008 25.559 28.7808 25.7528C29.7608 25.9466 30.667 26.4107 31.3972 27.0925C32.1273 27.7742 32.6523 28.6466 32.9127 29.6111C33.1258 30.4057 33.1533 31.2388 32.9929 32.0458C32.8325 32.8528 32.4887 33.612 31.988 34.2649C31.4872 34.9177 30.843 35.4466 30.1052 35.8106C29.3673 36.1747 28.5556 36.3641 27.7329 36.3642ZM27.7401 26.5611C26.8112 26.5613 25.9057 26.8526 25.1508 27.394C24.396 27.9354 23.8297 28.6997 23.5316 29.5795C23.2335 30.4593 23.2185 31.4104 23.4888 32.2991C23.7591 33.1879 24.3011 33.9696 25.0386 34.5344C25.7761 35.0993 26.672 35.4189 27.6005 35.4483C28.5289 35.4777 29.4433 35.2155 30.2151 34.6984C30.9868 34.1814 31.5772 33.4356 31.9032 32.5657C32.2292 31.6959 32.2745 30.7457 32.0327 29.8488C31.7797 28.9043 31.2216 28.0699 30.4453 27.4753C29.669 26.8807 28.718 26.5593 27.7401 26.5611Z" fill="#91CD86"/>
<path d="M42.1502 28.7725L12.1432 27.625C11.5399 27.602 11.0321 28.0723 11.009 28.6756L10.5512 40.6473C10.5281 41.2506 10.9985 41.7584 11.6018 41.7815L41.6088 42.929C42.2121 42.952 42.7199 42.4817 42.743 41.8784L43.2008 29.9067C43.2238 29.3034 42.7535 28.7956 42.1502 28.7725Z" fill="#91CD86"/>
<path d="M43.0774 33.0838L42.8615 38.7073C42.3266 38.6867 41.7929 38.7717 41.2908 38.9574C40.7887 39.1432 40.3282 39.426 39.9355 39.7898C39.5428 40.1536 39.2256 40.5911 39.002 41.0776C38.7785 41.564 38.653 42.0896 38.6327 42.6246V42.8186L14.5826 41.8967C14.5826 41.8329 14.5917 41.7682 14.5935 41.7026C14.6141 41.1677 14.5291 40.634 14.3434 40.1319C14.1577 39.6299 13.8748 39.1693 13.5111 38.7766C13.1473 38.3839 12.7097 38.0667 12.2233 37.8432C11.7369 37.6197 11.2112 37.4941 10.6763 37.4738L10.8922 31.8503C11.4271 31.8709 11.9608 31.7859 12.4629 31.6002C12.9649 31.4145 13.4255 31.1316 13.8182 30.7678C14.2109 30.4041 14.5281 29.9665 14.7516 29.4801C14.9752 28.9937 15.1007 28.468 15.121 27.9331C15.121 27.8684 15.121 27.8028 15.121 27.739L39.1711 28.6609C39.1711 28.7247 39.162 28.7894 39.1602 28.855C39.1395 29.3899 39.2245 29.9236 39.4103 30.4257C39.596 30.9277 39.8788 31.3883 40.2426 31.781C40.6064 32.1737 41.044 32.4909 41.5304 32.7144C42.0168 32.938 42.5425 33.0635 43.0774 33.0838Z" fill="#A9EA9C"/>
<path d="M41.6489 43.479H41.5852L11.5781 42.3275C11.3629 42.3194 11.1513 42.269 10.9556 42.1791C10.7599 42.0893 10.5837 41.9617 10.4373 41.8038C10.2909 41.6458 10.177 41.4606 10.1022 41.2586C10.0273 41.0567 9.99301 40.8419 10.0012 40.6267L10.4567 28.6545C10.4649 28.4393 10.5154 28.2278 10.6054 28.0321C10.6954 27.8364 10.823 27.6603 10.9811 27.514C11.1391 27.3676 11.3244 27.2538 11.5264 27.1791C11.7284 27.1044 11.9432 27.0702 12.1584 27.0785L42.1655 28.2282C42.3807 28.2364 42.5922 28.2869 42.7879 28.3769C42.9836 28.4669 43.1596 28.5945 43.306 28.7525C43.4523 28.9106 43.5661 29.0959 43.6409 29.2979C43.7156 29.4999 43.7498 29.7147 43.7415 29.9299L43.286 41.9021C43.2697 42.3255 43.0902 42.7262 42.785 43.0202C42.4798 43.3142 42.0727 43.4786 41.6489 43.479ZM41.6271 42.3858C41.6989 42.3886 41.7705 42.3773 41.8379 42.3523C41.9053 42.3274 41.9671 42.2895 42.0198 42.2407C42.0725 42.1919 42.1151 42.1331 42.1451 42.0678C42.1751 42.0025 42.1919 41.932 42.1946 41.8602L42.6501 29.888C42.6529 29.8162 42.6415 29.7445 42.6166 29.6771C42.5917 29.6098 42.5538 29.5479 42.505 29.4952C42.4561 29.4425 42.3974 29.3999 42.3321 29.3699C42.2668 29.34 42.1963 29.3231 42.1245 29.3204L12.1211 28.1717C12.049 28.1684 11.9771 28.1794 11.9093 28.204C11.8416 28.2286 11.7793 28.2664 11.7263 28.3152C11.6732 28.3639 11.6302 28.4227 11.6 28.4882C11.5697 28.5536 11.5527 28.6244 11.5499 28.6964L11.0944 40.6686C11.0916 40.7404 11.1029 40.812 11.1278 40.8794C11.1528 40.9468 11.1907 41.0087 11.2395 41.0614C11.2883 41.1141 11.3471 41.1566 11.4124 41.1866C11.4777 41.2166 11.5482 41.2335 11.62 41.2362L41.6271 42.3858Z" fill="#1D6855"/>
<path d="M32.1148 30.5768L37.4477 30.7808C37.7994 30.7945 37.7994 30.2479 37.4477 30.2342L32.1148 30.0302C31.7632 30.0165 31.7632 30.5631 32.1148 30.5768Z" fill="white"/>
<path d="M38.8511 30.8109L41.4693 30.9111C41.821 30.9248 41.821 30.3782 41.4693 30.3645L38.8511 30.2643C38.4995 30.2506 38.4995 30.7972 38.8511 30.8109Z" fill="white"/>
<path d="M32.3207 24.5223L37.5069 23.2633C37.8485 23.1804 37.7037 22.653 37.3612 22.7359L32.1749 23.9948C31.8333 24.0777 31.9781 24.6052 32.3207 24.5223Z" fill="white"/>
<path d="M38.8641 22.9099L41.4103 22.2941C41.752 22.2112 41.6071 21.6837 41.2646 21.7666L38.7184 22.3852C38.3767 22.4681 38.5216 22.9955 38.8641 22.9126V22.9099Z" fill="white"/>
<path d="M12.6431 40.102L17.9761 40.3061C18.3277 40.3197 18.3277 39.7732 17.9761 39.7595L12.6431 39.5554C12.2915 39.5418 12.2915 40.0884 12.6431 40.102Z" fill="white"/>
<path d="M19.3843 40.3315L22.0025 40.4317C22.3542 40.4454 22.3542 39.8988 22.0025 39.8851L19.3843 39.7849C19.0327 39.7713 19.0327 40.3178 19.3843 40.3315Z" fill="white"/>
<path d="M27.5622 36.0599C27.5823 35.5397 27.2953 35.1808 26.6576 34.9194C26.1912 34.7117 25.9899 34.6096 25.999 34.3728C26.0053 34.1997 26.1857 34.0321 26.5456 34.0466C26.8085 34.0519 27.0662 34.1213 27.2962 34.2489L27.5112 33.5939C27.2555 33.4578 26.9718 33.3826 26.6822 33.3743L26.7068 32.7366L26.0755 32.712L26.0482 33.4144C25.5016 33.5474 25.1754 33.9282 25.1563 34.4165C25.1353 34.9531 25.5207 35.2992 26.1238 35.5434C26.5601 35.7019 26.7278 35.8513 26.7196 36.0718C26.7095 36.3241 26.4991 36.4744 26.1201 36.4598C25.8013 36.4425 25.4903 36.3551 25.2091 36.2039L24.9941 36.8753C25.2778 37.0197 25.5876 37.1055 25.9051 37.1276L25.8805 37.7653L26.5118 37.7899L26.5182 37.6323L26.5383 37.1085C27.2115 36.9882 27.5431 36.5619 27.5622 36.0599Z" fill="#91CD86"/>
<path d="M26.2943 39.7922C26.2336 39.7922 26.175 39.7922 26.1185 39.7922C25.2221 39.7578 24.3559 39.4584 23.6297 38.9319C22.9034 38.4053 22.3496 37.6751 22.0383 36.8338C21.7269 35.9925 21.6721 35.0777 21.8806 34.2052C22.0892 33.3327 22.5518 32.5416 23.2099 31.932C23.8681 31.3224 24.6922 30.9217 25.5781 30.7804C26.464 30.6392 27.3719 30.7639 28.1869 31.1386C29.002 31.5133 29.6876 32.1214 30.1572 32.8858C30.6267 33.6502 30.859 34.5367 30.8247 35.4331C30.7777 36.6038 30.28 37.711 29.4358 38.5233C28.5915 39.3357 27.4659 39.7903 26.2943 39.7922ZM26.2943 31.6315C25.3585 31.6511 24.4665 32.0319 23.8051 32.6942C23.1437 33.3566 22.7641 34.2491 22.7459 35.1849C22.7277 36.1208 23.0721 37.0274 23.7072 37.715C24.3423 38.4026 25.2188 38.8179 26.1531 38.8739H26.2934C27.2301 38.8723 28.1299 38.5086 28.8047 37.8588C29.4794 37.209 29.8768 36.3235 29.9137 35.3876C29.932 34.9118 29.8564 34.4371 29.6912 33.9906C29.526 33.5441 29.2745 33.1345 28.951 32.7852C28.6275 32.4359 28.2384 32.1538 27.8058 31.9549C27.3733 31.756 26.9058 31.6443 26.43 31.6261L26.2943 31.6315Z" fill="#91CD86"/>
</svg>
