<svg width="16" height="14" viewBox="0 0 16 14" fill="none" xmlns="http://www.w3.org/2000/svg">
<path d="M11.8883 0.323086L0.631008 7.49201C0.404672 7.63615 0.338037 7.93647 0.482173 8.16281L3.34231 12.654C3.48645 12.8804 3.78677 12.947 4.01311 12.8029L15.2704 5.63396C15.4968 5.48982 15.5634 5.18949 15.4193 4.96316L12.5591 0.471921C12.415 0.245586 12.1147 0.17895 11.8883 0.323086Z" fill="#C1DCC3"/>
<path d="M13.3176 1.66458L14.6614 3.77281C14.4608 3.90057 14.2873 4.06659 14.1508 4.2614C14.0144 4.45622 13.9176 4.676 13.8661 4.9082C13.8146 5.1404 13.8094 5.38048 13.8506 5.61471C13.8919 5.84895 13.9789 6.07276 14.1067 6.27337C14.1221 6.29766 14.1383 6.32155 14.1545 6.34503L5.13004 12.0924C5.11546 12.0681 5.10048 12.043 5.0851 12.0187C4.95743 11.8179 4.79148 11.6443 4.59671 11.5078C4.40194 11.3712 4.18218 11.2743 3.94997 11.2227C3.71776 11.1711 3.47766 11.1657 3.24337 11.2069C3.00909 11.2481 2.78521 11.335 2.58453 11.4628L1.24072 9.35372C1.44134 9.22596 1.61483 9.05994 1.75129 8.86512C1.88774 8.67031 1.98448 8.45053 2.03599 8.21833C2.0875 7.98613 2.09277 7.74605 2.05149 7.51182C2.01021 7.27758 1.92319 7.05377 1.79541 6.85316C1.78003 6.82887 1.76383 6.80498 1.74764 6.7815L10.7705 1.03418C10.7851 1.05847 10.8 1.08358 10.8154 1.10787C10.943 1.30887 11.109 1.48275 11.3039 1.61954C11.4987 1.75633 11.7187 1.85335 11.9511 1.90506C12.1835 1.95677 12.4238 1.96215 12.6583 1.92088C12.8928 1.87962 13.1168 1.79252 13.3176 1.66458Z" fill="#A9EA9C"/>
<path d="M3.754 13.1228C3.63125 13.123 3.51045 13.0921 3.40279 13.0332C3.29513 12.9742 3.20411 12.889 3.13817 12.7855L0.277663 8.29372C0.173842 8.13071 0.139021 7.93314 0.180858 7.74446C0.222694 7.55578 0.337762 7.39144 0.500754 7.28759L11.7565 0.118727C11.9195 0.0149068 12.1171 -0.0199145 12.3058 0.0219219C12.4945 0.0637584 12.6588 0.178826 12.7627 0.341818L15.6228 4.83319C15.7266 4.9962 15.7614 5.19377 15.7196 5.38245C15.6777 5.57113 15.5627 5.73547 15.3997 5.83932L4.1439 13.0082C4.02752 13.0828 3.89223 13.1225 3.754 13.1228ZM12.1472 0.49041C12.1015 0.490351 12.0566 0.503419 12.0181 0.528064L0.761904 7.69733C0.707856 7.73218 0.669832 7.78705 0.656171 7.84989C0.642509 7.91273 0.654324 7.97843 0.689025 8.03257L3.54791 12.5239C3.58283 12.5779 3.63772 12.6159 3.70056 12.6294C3.7634 12.643 3.82906 12.6312 3.88315 12.5964L15.1405 5.42999C15.1949 5.39539 15.2332 5.34065 15.2472 5.27778C15.2612 5.21492 15.2496 5.14908 15.215 5.09474L12.3545 0.602563C12.3198 0.548453 12.2651 0.510307 12.2023 0.496483C12.1842 0.492417 12.1658 0.49038 12.1472 0.49041Z" fill="#1D6855"/>
<path d="M1.38515 7.98081L3.38568 6.70665C3.45127 6.66616 3.39054 6.55967 3.32454 6.60178L1.32361 7.87433C1.25802 7.91482 1.31875 8.0213 1.38474 7.97919L1.38515 7.98081Z" fill="white"/>
<path d="M3.67665 6.51951L4.6589 5.89396C4.72449 5.85347 4.66376 5.74699 4.59776 5.7891L3.61511 6.41464C3.54952 6.45513 3.61025 6.56162 3.67625 6.51951H3.67665Z" fill="white"/>
<path d="M4.01114 12.2632L8.65435 9.30757L9.30216 8.89378C9.36775 8.85329 9.30702 8.74681 9.24102 8.78891L4.59984 11.7462L3.95203 12.16C3.88643 12.2005 3.94717 12.3069 4.01316 12.2648L4.01114 12.2632Z" fill="white"/>
<path d="M10.6959 8.03139L14.1196 5.85109L14.6079 5.54014C14.6734 5.49965 14.6127 5.39317 14.5467 5.43528L11.1234 7.61638L10.6351 7.92733C10.5695 7.96782 10.6303 8.07431 10.6963 8.0322L10.6959 8.03139Z" fill="white"/>
<path d="M8.40039 6.6746C8.27609 6.47944 8.08053 6.42073 7.78132 6.48632C7.55863 6.52681 7.45741 6.54179 7.40235 6.45312C7.36186 6.38794 7.38453 6.28145 7.52057 6.19481C7.61756 6.13052 7.72872 6.09077 7.84448 6.07901L7.75703 5.78507C7.6292 5.80007 7.50657 5.84441 7.3987 5.91463L7.24809 5.67737L7.01123 5.82798L7.17885 6.09156C7.01285 6.27862 6.98977 6.50009 7.10597 6.68269C7.23392 6.88513 7.46106 6.91388 7.74488 6.84991C7.94449 6.79768 8.04368 6.80942 8.09632 6.8904C8.15665 6.98514 8.11737 7.09284 7.97485 7.18353C7.85438 7.25718 7.7192 7.30348 7.57888 7.31917L7.66998 7.61878C7.80953 7.60005 7.9439 7.55352 8.06514 7.48193L8.21657 7.72L8.45343 7.56939L8.41577 7.51027L8.29066 7.3135C8.50687 7.10256 8.52023 6.86287 8.40039 6.6746Z" fill="#34B67A"/>
<path d="M7.73668 9.08201C7.32314 9.08266 6.91656 8.97554 6.55702 8.77121C6.19749 8.56688 5.8974 8.27238 5.68633 7.91676C5.47527 7.56113 5.36052 7.15664 5.35338 6.74316C5.34625 6.32968 5.44698 5.92148 5.64565 5.55878C5.84432 5.19609 6.13407 4.89142 6.48635 4.6748C6.83862 4.45819 7.24126 4.33711 7.65458 4.3235C8.0679 4.30988 8.47763 4.4042 8.8434 4.59716C9.20917 4.79012 9.51834 5.07505 9.74045 5.42389C9.9695 5.78337 10.0978 6.19778 10.1119 6.6238C10.126 7.04982 10.0254 7.4718 9.8206 7.84564C9.61583 8.21949 9.31439 8.53146 8.9478 8.74895C8.58121 8.96644 8.16293 9.08147 7.73668 9.08201ZM7.72899 4.72628C7.29042 4.72694 6.86453 4.87347 6.5184 5.14279C6.17226 5.41211 5.92555 5.78892 5.81711 6.21387C5.70867 6.63882 5.74467 7.08777 5.91943 7.49001C6.0942 7.89226 6.3978 8.22494 6.78242 8.43567C7.16705 8.64639 7.61084 8.72319 8.04391 8.65397C8.47698 8.58475 8.87473 8.37343 9.1745 8.05331C9.47427 7.73319 9.65904 7.32244 9.69971 6.88576C9.74038 6.44909 9.63463 6.01129 9.39913 5.64131C9.26034 5.42208 9.07944 5.23255 8.86692 5.08368C8.6544 4.93482 8.41446 4.82958 8.161 4.77405C8.01917 4.74242 7.8743 4.7264 7.72899 4.72628Z" fill="#C1DCC3"/>
<path d="M13.7578 3.60592L0.872406 7.08266C0.613337 7.15256 0.459987 7.41924 0.529889 7.67831L1.91698 12.8191C1.98688 13.0782 2.25356 13.2315 2.51263 13.1616L15.398 9.68487C15.6571 9.61497 15.8104 9.34828 15.7405 9.08921L14.3534 3.94844C14.2835 3.68937 14.0169 3.53602 13.7578 3.60592Z" fill="#C1DCC3"/>
<path d="M14.721 5.31217L15.3725 7.7273C15.1428 7.78922 14.9276 7.89578 14.7391 8.04088C14.5507 8.18599 14.3926 8.36679 14.2741 8.57298C14.1555 8.77917 14.0787 9.00669 14.048 9.24256C14.0174 9.47844 14.0335 9.71803 14.0955 9.94768C14.1032 9.97561 14.1113 10.0031 14.1198 10.0287L3.78995 12.8171C3.78347 12.7896 3.77659 12.7612 3.7693 12.7333C3.70738 12.5036 3.60082 12.2884 3.45572 12.1C3.31061 11.9115 3.1298 11.7534 2.92362 11.6349C2.71743 11.5163 2.4899 11.4395 2.25403 11.4088C2.01816 11.3782 1.77856 11.3943 1.54892 11.4563L0.897461 9.04114C1.12711 8.97922 1.34232 8.87266 1.53078 8.72756C1.71925 8.58245 1.87729 8.40164 1.99587 8.19546C2.11446 7.98927 2.19126 7.76175 2.22191 7.52587C2.25255 7.29 2.23643 7.0504 2.17446 6.82076C2.16677 6.79283 2.15867 6.76529 2.15017 6.73979L12.48 3.95135C12.4865 3.97889 12.4933 4.00723 12.5006 4.03517C12.5626 4.26482 12.6691 4.48002 12.8142 4.66849C12.9593 4.85695 13.1401 5.01499 13.3463 5.13358C13.5525 5.25216 13.78 5.32896 14.0159 5.35961C14.2518 5.39025 14.4914 5.37413 14.721 5.31217Z" fill="#A9EA9C"/>
<path d="M2.38503 13.4215C2.22495 13.4209 2.06947 13.3679 1.94244 13.2704C1.81541 13.173 1.72383 13.0366 1.68175 12.8822L0.295022 7.74017C0.270158 7.64771 0.263757 7.55125 0.276186 7.45632C0.288614 7.36138 0.319629 7.26982 0.367457 7.18687C0.415284 7.10393 0.478988 7.03122 0.554928 6.9729C0.630867 6.91458 0.717554 6.8718 0.810034 6.847L13.6943 3.37229C13.7867 3.34735 13.8831 3.34085 13.978 3.35317C14.0729 3.36549 14.1645 3.39639 14.2475 3.4441C14.3304 3.49181 14.4032 3.5554 14.4616 3.63124C14.52 3.70708 14.5629 3.79368 14.5878 3.88609L15.9746 9.02811C15.9995 9.12052 16.006 9.21693 15.9937 9.31186C15.9814 9.40678 15.9505 9.49834 15.9027 9.58132C15.855 9.6643 15.7914 9.73707 15.7156 9.79547C15.6398 9.85387 15.5532 9.89676 15.4608 9.92168L2.57492 13.3964C2.51301 13.4131 2.44916 13.4215 2.38503 13.4215ZM13.8837 3.83265C13.8625 3.8327 13.8414 3.83556 13.821 3.84115L0.935144 7.31707C0.904192 7.32537 0.875188 7.33971 0.849803 7.35927C0.824418 7.37883 0.803154 7.40322 0.787235 7.43103C0.771315 7.45884 0.761056 7.48953 0.757047 7.52132C0.753039 7.55311 0.75536 7.58539 0.763878 7.61628L2.1506 12.7583C2.16739 12.8204 2.20816 12.8734 2.26396 12.9055C2.31976 12.9376 2.38602 12.9463 2.44819 12.9296L15.334 9.45364C15.3651 9.44555 15.3943 9.43138 15.4199 9.41195C15.4455 9.39251 15.4669 9.36819 15.483 9.3404C15.4992 9.31261 15.5096 9.2819 15.5138 9.25005C15.5179 9.2182 15.5157 9.18584 15.5073 9.15484L14.1186 4.01282C14.1043 3.96129 14.0737 3.91583 14.0312 3.88337C13.9887 3.85092 13.9368 3.83324 13.8833 3.83305L13.8837 3.83265Z" fill="#1D6855"/>
<path d="M2.67253 12.645L7.98703 11.2113L8.73081 11.0088C8.7459 11.0042 8.75858 10.9938 8.76616 10.98C8.77374 10.9661 8.77562 10.9498 8.77141 10.9346C8.76719 10.9194 8.75722 10.9064 8.74359 10.8984C8.72996 10.8904 8.71376 10.8881 8.69842 10.8918L3.38472 12.3275L2.64095 12.53C2.62586 12.5346 2.61318 12.545 2.60559 12.5589C2.59801 12.5727 2.59613 12.589 2.60035 12.6042C2.60456 12.6194 2.61454 12.6324 2.62817 12.6404C2.64179 12.6484 2.658 12.6508 2.67334 12.647L2.67253 12.645Z" fill="white"/>
<path d="M10.3181 10.6052L14.237 9.54808L14.7957 9.39787C14.8108 9.39321 14.8235 9.38285 14.8311 9.36899C14.8387 9.35513 14.8405 9.33887 14.8363 9.32364C14.8321 9.30842 14.8221 9.29544 14.8085 9.28745C14.7949 9.27946 14.7787 9.2771 14.7633 9.28086L10.8445 10.338L10.2845 10.4882C10.2694 10.4929 10.2567 10.5032 10.2491 10.5171C10.2416 10.531 10.2397 10.5472 10.2439 10.5624C10.2481 10.5777 10.2581 10.5907 10.2717 10.5986C10.2853 10.6066 10.3016 10.609 10.3169 10.6052H10.3181Z" fill="white"/>
<path d="M8.53011 8.62495C8.46978 8.40145 8.30095 8.28728 7.99567 8.26056C7.77055 8.23424 7.67176 8.21723 7.64423 8.11561C7.62398 8.04111 7.67864 7.94637 7.83452 7.90426C7.94684 7.87173 8.0654 7.86714 8.17989 7.8909L8.18434 7.5844C8.05789 7.56054 7.92764 7.56622 7.80375 7.601L7.73047 7.32892L7.4596 7.4022L7.54058 7.70384C7.32639 7.83259 7.23813 8.03706 7.29441 8.24598C7.35635 8.47636 7.56446 8.57272 7.85396 8.59661C8.06004 8.60633 8.15114 8.64722 8.17786 8.74196C8.20702 8.85047 8.13738 8.94197 7.97542 8.98489C7.83838 9.01928 7.69547 9.02315 7.55677 8.99623L7.55394 9.30961C7.69279 9.33345 7.83501 9.32918 7.97218 9.29706L8.04587 9.56954L8.31674 9.49626L8.29852 9.42864L8.23779 9.20353C8.50299 9.06506 8.58842 8.84035 8.53011 8.62495Z" fill="#34B67A"/>
<path d="M7.88133 10.8331C7.43733 10.8324 7.00239 10.7076 6.62562 10.4727C6.24885 10.2378 5.94527 9.90223 5.74917 9.50389C5.55308 9.10555 5.47229 8.66031 5.51592 8.21847C5.55955 7.77663 5.72587 7.35579 5.99609 7.0035C6.26631 6.6512 6.62966 6.38149 7.0451 6.22484C7.46054 6.06818 7.9115 6.03081 8.34706 6.11696C8.78261 6.20311 9.1854 6.40935 9.50991 6.71236C9.83443 7.01538 10.0677 7.4031 10.1835 7.83174C10.2782 8.18493 10.2904 8.55518 10.2191 8.91384C10.1479 9.27249 9.99503 9.60995 9.77248 9.90009C9.54993 10.1902 9.26361 10.4253 8.93568 10.5871C8.60775 10.7489 8.247 10.8331 7.88133 10.8331ZM7.88456 6.47619C7.4717 6.47629 7.06925 6.60575 6.73375 6.84637C6.39826 7.08698 6.14658 7.42667 6.01409 7.8177C5.8816 8.20872 5.87496 8.63143 5.9951 9.02643C6.11523 9.42142 6.3561 9.76885 6.68387 10.0199C7.01164 10.2709 7.40983 10.413 7.82248 10.4261C8.23514 10.4391 8.64152 10.3226 8.98452 10.0928C9.32753 9.86301 9.58991 9.53152 9.73481 9.14492C9.87971 8.75833 9.89984 8.33604 9.79238 7.93742C9.67991 7.51762 9.43188 7.14676 9.08686 6.8825C8.74184 6.61824 8.31916 6.4754 7.88456 6.47619Z" fill="#C1DCC3"/>
<path d="M14.2887 7.45911L0.952303 6.94911C0.684165 6.93885 0.458484 7.14791 0.44823 7.41605L0.244758 12.7368C0.234504 13.0049 0.44356 13.2306 0.711698 13.2408L14.0481 13.7509C14.3163 13.7611 14.542 13.552 14.5522 13.2839L14.7557 7.96318C14.7659 7.69505 14.5569 7.46936 14.2887 7.45911Z" fill="#C1DCC3"/>
<path d="M14.7013 9.37521L14.6053 11.8746C14.3676 11.8654 14.1304 11.9032 13.9072 11.9857C13.6841 12.0683 13.4794 12.194 13.3049 12.3556C13.1303 12.5173 12.9894 12.7118 12.89 12.928C12.7907 13.1442 12.7349 13.3778 12.7259 13.6155V13.7018L2.03692 13.292C2.03692 13.2637 2.04097 13.235 2.04178 13.2058C2.05094 12.9681 2.01317 12.7309 1.93062 12.5077C1.84807 12.2846 1.72237 12.0799 1.56069 11.9054C1.39901 11.7308 1.20452 11.5898 0.988343 11.4905C0.772163 11.3911 0.538526 11.3354 0.300781 11.3263L0.396739 8.82699C0.634479 8.83615 0.871694 8.79838 1.09483 8.71583C1.31797 8.63329 1.52265 8.50758 1.69719 8.3459C1.87173 8.18422 2.0127 7.98974 2.11205 7.77356C2.2114 7.55738 2.26718 7.32374 2.27621 7.086C2.27621 7.05725 2.27621 7.0281 2.27621 6.99976L12.9651 7.4095C12.9651 7.43784 12.9611 7.46659 12.9603 7.49574C12.9511 7.73348 12.9889 7.97069 13.0714 8.19383C13.154 8.41696 13.2797 8.62165 13.4414 8.79619C13.6031 8.97073 13.7975 9.1117 14.0137 9.21105C14.2299 9.3104 14.4635 9.36618 14.7013 9.37521Z" fill="#A9EA9C"/>
<path d="M14.0662 13.9953H14.0379L0.701379 13.4835C0.605721 13.4799 0.511709 13.4575 0.424714 13.4176C0.337719 13.3776 0.259444 13.3209 0.194361 13.2507C0.129277 13.1805 0.0786609 13.0982 0.045402 13.0084C0.0121431 12.9187 -0.0031064 12.8232 0.000524461 12.7276L0.202966 7.40662C0.206618 7.31096 0.22908 7.21696 0.269068 7.12998C0.309057 7.043 0.365789 6.96476 0.436023 6.89971C0.506258 6.83467 0.588619 6.78409 0.678403 6.75089C0.768186 6.71768 0.863632 6.70248 0.95929 6.70617L14.2958 7.21713C14.3914 7.22078 14.4854 7.24324 14.5724 7.28323C14.6594 7.32322 14.7376 7.37995 14.8027 7.45019C14.8677 7.52042 14.9183 7.60278 14.9515 7.69257C14.9847 7.78235 14.9999 7.8778 14.9962 7.97345L14.7938 13.2944C14.7865 13.4826 14.7068 13.6607 14.5711 13.7914C14.4355 13.922 14.2545 13.9951 14.0662 13.9953ZM14.0565 13.5094C14.0884 13.5107 14.1202 13.5056 14.1502 13.4945C14.1801 13.4835 14.2076 13.4666 14.231 13.4449C14.2545 13.4232 14.2734 13.3971 14.2867 13.3681C14.3 13.3391 14.3075 13.3077 14.3087 13.2758L14.5112 7.95483C14.5124 7.92292 14.5073 7.89108 14.4963 7.86113C14.4852 7.83118 14.4683 7.8037 14.4466 7.78027C14.4249 7.75684 14.3988 7.73792 14.3698 7.72459C14.3408 7.71126 14.3095 7.70379 14.2775 7.70259L0.942689 7.19203C0.910682 7.19056 0.8787 7.19544 0.848586 7.20639C0.818472 7.21733 0.790821 7.23413 0.767225 7.2558C0.743629 7.27748 0.724555 7.30361 0.7111 7.33269C0.697645 7.36177 0.690075 7.39322 0.688827 7.42524L0.486385 12.7462C0.485139 12.7781 0.490195 12.81 0.501265 12.8399C0.512335 12.8699 0.529201 12.8973 0.550899 12.9208C0.572597 12.9442 0.598701 12.9631 0.627717 12.9764C0.656734 12.9898 0.688094 12.9973 0.720003 12.9985L14.0565 13.5094Z" fill="#1D6855"/>
<path d="M9.82864 8.26099L12.1988 8.35168C12.3551 8.35775 12.3551 8.11482 12.1988 8.10875L9.82864 8.01806C9.67235 8.01198 9.67235 8.25491 9.82864 8.26099Z" fill="white"/>
<path d="M12.8228 8.36499L13.9864 8.40953C14.1427 8.4156 14.1427 8.17267 13.9864 8.1666L12.8228 8.12206C12.6665 8.11599 12.6665 8.35892 12.8228 8.36499Z" fill="white"/>
<path d="M9.92046 5.57011L12.2255 5.01056C12.3773 4.97371 12.3129 4.73929 12.1607 4.77613L9.85568 5.33568C9.70385 5.37252 9.76822 5.60695 9.92046 5.57011Z" fill="white"/>
<path d="M12.8287 4.85347L13.9603 4.57977C14.1121 4.54293 14.0478 4.3085 13.8955 4.34535L12.7639 4.62026C12.612 4.65711 12.6764 4.89153 12.8287 4.85469V4.85347Z" fill="white"/>
<path d="M1.17483 12.4944L3.54502 12.5851C3.70131 12.5912 3.70131 12.3482 3.54502 12.3421L1.17483 12.2515C1.01855 12.2454 1.01855 12.4883 1.17483 12.4944Z" fill="white"/>
<path d="M4.17092 12.5964L5.33456 12.6409C5.49085 12.647 5.49085 12.4041 5.33456 12.398L4.17092 12.3534C4.01464 12.3474 4.01464 12.5903 4.17092 12.5964Z" fill="white"/>
<path d="M7.80543 10.6979C7.81434 10.4667 7.6868 10.3072 7.40338 10.191C7.19608 10.0987 7.1066 10.0533 7.11065 9.94806C7.11348 9.87114 7.19365 9.79664 7.35358 9.80311C7.47045 9.80545 7.58498 9.83631 7.6872 9.893L7.78276 9.60189C7.6691 9.5414 7.54301 9.50801 7.41431 9.50431L7.42524 9.22089L7.14466 9.20996L7.13251 9.52213C6.88958 9.58124 6.74463 9.75048 6.73613 9.9675C6.72682 10.206 6.89809 10.3598 7.16612 10.4683C7.36006 10.5388 7.43456 10.6052 7.43091 10.7032C7.42646 10.8153 7.33293 10.8821 7.1645 10.8757C7.02281 10.868 6.88457 10.8291 6.75962 10.7619L6.66406 11.0603C6.79012 11.1245 6.92782 11.1626 7.06895 11.1724L7.05801 11.4558L7.3386 11.4668L7.34143 11.3967L7.35034 11.1639C7.64955 11.1105 7.79693 10.921 7.80543 10.6979Z" fill="#C1DCC3"/>
<path d="M7.24197 12.3567C7.21498 12.3567 7.18893 12.3567 7.16383 12.3567C6.76541 12.3414 6.38048 12.2084 6.05769 11.9743C5.7349 11.7403 5.48876 11.4158 5.35039 11.0419C5.21202 10.668 5.18764 10.2614 5.28033 9.87361C5.37302 9.48583 5.57862 9.13424 5.87113 8.86331C6.16364 8.59238 6.52991 8.41426 6.92365 8.35149C7.31738 8.28873 7.72089 8.34412 8.08314 8.51068C8.44539 8.67723 8.75012 8.94746 8.95879 9.2872C9.16746 9.62694 9.2707 10.0209 9.25546 10.4193C9.23457 10.9396 9.0134 11.4317 8.63817 11.7928C8.26294 12.1538 7.76269 12.3559 7.24197 12.3567ZM7.24197 8.72976C6.82605 8.73845 6.42962 8.9077 6.13566 9.20207C5.8417 9.49644 5.67301 9.89311 5.6649 10.309C5.65679 10.725 5.80989 11.1279 6.09215 11.4335C6.37441 11.7391 6.76395 11.9237 7.17921 11.9486H7.24157C7.65789 11.9479 8.05781 11.7862 8.35768 11.4974C8.65756 11.2086 8.83417 10.8151 8.85057 10.3991C8.85871 10.1877 8.82511 9.97669 8.75169 9.77824C8.67828 9.57979 8.5665 9.39775 8.42272 9.24251C8.27895 9.08727 8.106 8.96187 7.91375 8.87347C7.72151 8.78508 7.51374 8.73542 7.3023 8.72733L7.24197 8.72976Z" fill="#C1DCC3"/>
</svg>
