<svg width="20" height="20" viewBox="0 0 20 20" fill="none" xmlns="http://www.w3.org/2000/svg">
<path d="M17.4472 10.8944C17.786 10.725 18 10.3788 18 10C18 9.62124 17.786 9.27498 17.4472 9.10558L3.44724 2.10558C3.09254 1.92823 2.66656 1.97724 2.36139 2.2305C2.05623 2.48376 1.92956 2.89342 2.03851 3.27473L3.46707 8.27472C3.58973 8.70402 3.98212 9 4.4286 9L9.00003 9C9.55232 9 10 9.44771 10 10C10 10.5523 9.55232 11 9.00003 11L4.4286 11C3.98212 11 3.58974 11.296 3.46708 11.7253L2.03851 16.7253C1.92956 17.1066 2.05623 17.5163 2.36139 17.7695C2.66656 18.0228 3.09254 18.0718 3.44724 17.8944L17.4472 10.8944Z" fill="#ECF4EC"/>
</svg>
