<svg width="18" height="18" viewBox="0 0 18 18" fill="none" xmlns="http://www.w3.org/2000/svg">
<g clip-path="url(#clip0_68_2886)">
<path d="M8.80432 17.9021C13.517 17.9021 17.3364 14.0826 17.3364 9.36999C17.3364 4.65733 13.517 0.837879 8.80432 0.837879C4.09166 0.837879 0.272205 4.65733 0.272205 9.36999C0.272205 14.0826 4.09166 17.9021 8.80432 17.9021ZM4.58492 9.41665C5.00153 9.00004 5.67643 9.00004 6.09304 9.41665L7.7378 11.0597L7.7378 5.10393C7.7378 4.51435 8.2154 4.03742 8.80432 4.03742C9.39323 4.03742 9.87083 4.51435 9.87083 5.10393L9.87083 11.0597L11.5173 9.41665C11.9339 9.00004 12.6088 9.00004 13.0254 9.41665C13.442 9.83326 13.442 10.5082 13.0254 10.9248L9.5892 14.3609C9.29425 14.6559 8.96763 14.7026 8.80432 14.7026C8.64164 14.7026 8.31605 14.6562 8.04942 14.3893L4.61325 10.9532C4.16831 10.5065 4.16831 9.83326 4.58492 9.41665Z" fill="#4EAA52"/>
</g>
<defs>
<clipPath id="clip0_68_2886">
<rect width="17.0642" height="17.0642" fill="white" transform="matrix(-1 0 0 -1 17.3364 17.9021)"/>
</clipPath>
</defs>
</svg>
