<svg width="18" height="18" viewBox="0 0 18 18" fill="none" xmlns="http://www.w3.org/2000/svg">
<path d="M8.80457 0.837891C4.09191 0.837891 0.272461 4.65734 0.272461 9.37C0.272461 14.0827 4.09191 17.9021 8.80457 17.9021C13.5172 17.9021 17.3367 14.0827 17.3367 9.37C17.3367 4.65734 13.5172 0.837891 8.80457 0.837891ZM13.024 9.32334C12.6074 9.73995 11.9325 9.73995 11.5158 9.32334L9.87109 7.68024V13.6361C9.87109 14.2256 9.39349 14.7026 8.80457 14.7026C8.21566 14.7026 7.73806 14.2256 7.73806 13.6361V7.68024L6.09163 9.32334C5.67502 9.73995 5.00012 9.73995 4.58351 9.32334C4.1669 8.90673 4.1669 8.23183 4.58351 7.81522L8.01968 4.37905C8.31464 4.08409 8.64126 4.03743 8.80457 4.03743C8.96725 4.03743 9.29283 4.08379 9.55946 4.35065L12.9956 7.78683C13.4406 8.2335 13.4406 8.90673 13.024 9.32334Z" fill="#E93535"/>
</svg>
