<svg width="16" height="16" viewBox="0 0 16 16" fill="none" xmlns="http://www.w3.org/2000/svg">
<path d="M3.97333 16C10.48 15.9733 15.9733 10.4533 16 3.94667L0 0L3.97333 16Z" fill="#F6DA77"/>
<path d="M3.46665 13.9198L3.57331 14.4798C8.63998 14.2132 13.9466 10.5865 14.48 3.54649L13.9466 3.46649C13.2533 8.85316 8.87998 13.2532 3.46665 13.9198Z" fill="#860D16"/>
<path d="M3.57333 14.4535L3.94667 15.9735C10.4533 16.0002 16 10.4535 16 3.89354L14.48 3.5202C13.8933 9.78687 9.78667 13.8669 3.57333 14.4535Z" fill="#C98E52"/>
<path d="M5.41344 2.98653C5.41344 2.5332 5.57344 2.1332 5.89344 1.8132C6.02677 1.67986 6.24011 1.67986 6.34677 1.8132C6.48011 1.94653 6.48011 2.15986 6.34677 2.26653C5.97344 2.63986 5.97344 3.30653 6.34677 3.67986C6.53344 3.86653 6.77344 3.9732 7.04011 3.9732C7.30677 3.9732 7.54677 3.86653 7.73344 3.67986C7.86677 3.54653 8.08011 3.54653 8.18677 3.67986C8.32011 3.8132 8.32011 4.02653 8.18677 4.1332C7.86677 4.4532 7.46677 4.6132 7.01344 4.6132C6.56011 4.6132 6.16011 4.4532 5.84011 4.1332C5.60011 3.83986 5.41344 3.4132 5.41344 2.98653ZM10.6934 9.67986H10.5601C10.4801 9.6532 10.4268 9.62653 10.3734 9.54653C10.3201 9.46653 10.3201 9.38653 10.3468 9.3332C10.4001 9.11986 10.3468 8.90653 10.2401 8.71986C10.1334 8.5332 9.94677 8.39986 9.73344 8.34653C9.30677 8.23986 8.85344 8.5332 8.74677 8.95986C8.72011 9.11986 8.53344 9.22653 8.40011 9.1732C8.24011 9.14653 8.13344 8.98653 8.18677 8.82653C8.32011 8.2932 8.72011 7.8932 9.25344 7.75986C9.46677 7.70653 9.68011 7.70653 9.86677 7.75986C10.2401 7.83986 10.5334 8.07986 10.7468 8.39986C10.9601 8.71986 11.0134 9.0932 10.9334 9.46653C10.8801 9.54653 10.8001 9.6532 10.6934 9.67986ZM2.96011 11.0932V10.9599C2.98677 10.8799 3.01344 10.8265 3.09344 10.7999C3.14677 10.7732 3.22677 10.7465 3.30677 10.7732C3.49344 10.8265 3.70677 10.7999 3.89344 10.6932C4.08011 10.5865 4.21344 10.4265 4.26677 10.2132C4.37344 9.8132 4.10677 9.35986 3.73344 9.2532C3.60011 9.22653 3.49344 9.03986 3.54677 8.90653C3.60011 8.74653 3.73344 8.66653 3.89344 8.71986C4.37344 8.8532 4.77344 9.2532 4.85344 9.75986C4.88011 9.94653 4.88011 10.1599 4.82677 10.3465C4.74677 10.6932 4.50677 10.9865 4.21344 11.1465C3.89344 11.3332 3.54677 11.3599 3.20011 11.2799C3.06677 11.2799 2.98677 11.1999 2.96011 11.0932Z" fill="#83BF4F"/>
<path d="M6.88011 9.28022C5.78677 9.65355 4.61344 9.06689 4.24011 7.94689C3.86678 6.82689 4.45344 5.62689 5.54677 5.28022C6.64011 4.90689 7.81344 5.49356 8.18677 6.61355C8.56011 7.70689 7.97344 8.90689 6.88011 9.28022ZM6.66677 12.6136C6.00011 12.8269 5.30678 12.4802 5.06677 11.8136C4.85344 11.1469 5.20011 10.4269 5.86678 10.2136C6.53344 10.0002 7.22677 10.3469 7.46677 11.0136C7.68011 11.6536 7.33344 12.3736 6.66677 12.6136ZM11.4668 7.12022C10.5868 7.41356 9.60011 6.93356 9.30677 6.02689C9.01344 5.12022 9.49344 4.13355 10.3734 3.84022C11.2534 3.54689 12.2401 4.02689 12.5334 4.93355C12.8268 5.84022 12.3468 6.82689 11.4668 7.12022ZM2.13344 8.56022L1.49344 5.97356C2.18677 5.73356 3.01344 6.21356 3.20011 6.90689C3.41344 7.76022 2.80011 8.32022 2.13344 8.56022ZM4.00011 4.61355C3.09344 4.93355 2.08011 4.42689 1.78678 3.49355C1.46677 2.56022 1.97344 1.54689 2.90678 1.22689C3.81344 0.906888 4.82678 1.41355 5.12011 2.34689C5.41344 3.28022 4.90677 4.29355 4.00011 4.61355Z" fill="#B21725"/>
<path d="M14.48 3.5202C14.4533 4.93354 14.1866 6.34687 13.6533 7.6802C13.1466 9.01354 12.3466 10.2669 11.3066 11.2802C10.2933 12.2935 9.03998 13.0935 7.70665 13.6269C6.37331 14.1602 4.95998 14.4269 3.54665 14.4535C4.93331 14.2135 6.29331 13.8402 7.54665 13.2535C8.79998 12.6669 9.97331 11.8935 10.9333 10.9069C11.92 9.94687 12.6933 8.77354 13.2533 7.5202C13.8666 6.26687 14.24 4.90687 14.48 3.5202Z" fill="#E0A763"/>
<path d="M12.9505 3.86524L13.4785 4.39324L12.9505 4.92124L12.4225 4.39324L12.9505 3.86524ZM11.455 7.31217L11.983 7.84017L11.455 8.36817L10.927 7.84017L11.455 7.31217ZM9.48065 2.82897L10.0086 3.35697L9.48065 3.88497L8.95265 3.35697L9.48065 2.82897ZM7.96412 4.65297L8.49212 5.18097L7.96412 5.70897L7.43612 5.18097L7.96412 4.65297ZM7.89612 9.39884L8.42412 9.92684L7.89612 10.4548L7.36812 9.92684L7.89612 9.39884ZM4.12252 12.4599L4.65052 12.9879L4.12252 13.5159L3.59452 12.9879L4.12252 12.4599ZM4.62625 4.61804L5.15425 5.14604L4.62625 5.67404L4.09825 5.14604L4.62625 4.61804ZM2.69265 4.99591L3.22065 5.52391L2.69265 6.05191L2.16465 5.52391L2.69265 4.99591ZM1.00251 0.54364L1.53051 1.07164L1.00251 1.59964L0.474515 1.07164L1.00251 0.54364ZM11.9126 3.11217L12.3086 3.50817L11.9126 3.90417L11.5166 3.50817L11.9126 3.11217ZM9.09532 6.46737L9.49132 6.86337L9.09532 7.25937L8.69932 6.86337L9.09532 6.46737ZM9.07878 10.0735L9.47478 10.4695L9.07878 10.8655L8.68278 10.4695L9.07878 10.0735ZM6.88972 2.96977L7.28572 3.36577L6.88972 3.76177L6.49372 3.36577L6.88972 2.96977ZM5.30678 1.34951L5.70278 1.74551L5.30705 2.14151L4.91105 1.74551L5.30678 1.34951ZM2.00412 0.728174L2.40012 1.12417L2.00412 1.52017L1.60812 1.12417L2.00412 0.728174ZM1.79052 4.15377L2.18652 4.54977L1.79025 4.94577L1.39452 4.54977L1.79052 4.15377ZM3.64118 7.59431L4.03718 7.99031L3.64118 8.38631L3.24518 7.99031L3.64118 7.59431ZM2.96118 9.26471L3.35718 9.66071L2.96118 10.0567L2.56545 9.66071L2.96118 9.26471ZM4.48812 11.4871L4.88385 11.8831L4.48785 12.2791L4.09185 11.8831L4.48812 11.4871Z" fill="#FFAB41"/>
</svg>
