<svg width="13" height="13" viewBox="0 0 13 13" fill="none" xmlns="http://www.w3.org/2000/svg">
<path d="M11.1927 6.42631C11.1927 6.5293 11.1518 6.62807 11.079 6.7009C11.0062 6.77372 10.9074 6.81463 10.8044 6.81463H6.9212V10.6978C6.9212 10.8008 6.88029 10.8996 6.80746 10.9724C6.73464 11.0452 6.63587 11.0861 6.53288 11.0861C6.42989 11.0861 6.33112 11.0452 6.2583 10.9724C6.18547 10.8996 6.14456 10.8008 6.14456 10.6978V6.81463H2.26137C2.15838 6.81463 2.05961 6.77372 1.98678 6.7009C1.91396 6.62807 1.87305 6.5293 1.87305 6.42631C1.87305 6.32332 1.91396 6.22455 1.98678 6.15173C2.05961 6.0789 2.15838 6.03799 2.26137 6.03799H6.14456V2.1548C6.14456 2.05181 6.18547 1.95304 6.2583 1.88022C6.33112 1.80739 6.42989 1.76648 6.53288 1.76648C6.63587 1.76648 6.73464 1.80739 6.80746 1.88022C6.88029 1.95304 6.9212 2.05181 6.9212 2.1548V6.03799H10.8044C10.9074 6.03799 11.0062 6.0789 11.079 6.15173C11.1518 6.22455 11.1927 6.32332 11.1927 6.42631Z" fill="#388E3C"/>
</svg>
