<svg width="56" height="56" viewBox="0 0 56 56" fill="none" xmlns="http://www.w3.org/2000/svg">
<circle opacity="0.64" cx="28" cy="28" r="28" fill="#FFBB00"/>
<path d="M11.2 17.194C10.537 17.194 10 17.731 10 18.394V19.5939C10 20.1579 10.393 20.6289 10.918 20.7579C11.008 20.7789 11.104 20.7939 11.2 20.7939H12.403C12.403 20.8779 15.2499 35.4487 15.2499 35.4487C15.3579 36.0007 15.8049 36.3967 16.3239 36.3967H35.2177L38.2776 20.7939H39.6186V20.7579L39.9966 19.5939V17.194H11.2Z" fill="url(#paint0_linear_74_4290)"/>
<path d="M10 19.5938C10 20.1578 10.393 20.6288 10.918 20.7578H39.6216L39.9996 19.5938H10Z" fill="#F57C00"/>
<path d="M14.962 23.3258L17.095 32.9286C17.155 33.2046 17.398 33.3996 17.68 33.3996H19C19.33 33.3996 19.6 33.1296 19.6 32.7996V23.1968C19.6 22.8668 19.33 22.5968 19 22.5968H15.547C15.163 22.5968 14.878 22.9508 14.962 23.3258Z" fill="#F57C00"/>
<path d="M33.8376 23.3258L31.7047 32.9286C31.6447 33.2046 31.4017 33.3996 31.1197 33.3996H29.7997C29.4697 33.3996 29.1997 33.1296 29.1997 32.7996V23.1968C29.1997 22.8668 29.4697 22.5968 29.7997 22.5968H33.2527C33.6336 22.5968 33.9216 22.9508 33.8376 23.3258Z" fill="#F57C00"/>
<path d="M22.669 22.5968H26.1279C26.4849 22.5968 26.7639 22.9088 26.7249 23.2628L25.66 32.8626C25.627 33.1656 25.369 33.3966 25.063 33.3966H23.737C23.431 33.3966 23.173 33.1656 23.14 32.8626L22.072 23.2598C22.033 22.9058 22.312 22.5968 22.669 22.5968Z" fill="#F57C00"/>
<path opacity="0.2" d="M39.0996 18.094V19.4529L38.9556 19.8969H38.2806C37.8516 19.8969 37.4796 20.2029 37.3986 20.6229L34.4797 35.4997H16.3239C16.2519 35.4997 16.1589 35.4157 16.1319 35.2777C15.3699 31.3807 13.387 21.2259 13.291 20.6739C13.231 20.2329 12.856 19.8969 12.4 19.8969H11.2C11.194 19.8969 11.173 19.8969 11.131 19.8849C11.02 19.8579 10.9 19.7559 10.9 19.5939V18.394C10.9 18.229 11.035 18.094 11.2 18.094H39.0996ZM39.9996 17.194H11.2C10.537 17.194 10 17.731 10 18.394V19.5939C10 20.1579 10.393 20.6289 10.918 20.7579C11.008 20.7789 11.104 20.7939 11.2 20.7939H12.403C12.403 20.8779 15.2499 35.4487 15.2499 35.4487C15.3579 36.0007 15.8049 36.3967 16.3239 36.3967H35.2177L38.2806 20.7939H39.6216V20.7579L39.9996 19.5939V17.194Z" fill="#424242"/>
<path opacity="0.2" d="M19 23.1967V32.7996H17.68L15.547 23.1967H19ZM19 22.5967H15.547C15.163 22.5967 14.878 22.9537 14.962 23.3257L17.095 32.9286C17.155 33.2046 17.398 33.3996 17.68 33.3996H19C19.33 33.3996 19.6 33.1296 19.6 32.7996V23.1967C19.6 22.8637 19.33 22.5967 19 22.5967Z" fill="#424242"/>
<path opacity="0.2" d="M33.2527 23.1967L31.1197 32.7996H29.7997V23.1967H33.2527ZM33.2527 22.5967H29.7997C29.4697 22.5967 29.1997 22.8667 29.1997 23.1967V32.7996C29.1997 33.1296 29.4697 33.3996 29.7997 33.3996H31.1197C31.4017 33.3996 31.6447 33.2046 31.7047 32.9286L33.8376 23.3257C33.9216 22.9507 33.6336 22.5967 33.2527 22.5967Z" fill="#424242"/>
<path opacity="0.2" d="M26.1279 23.1967L25.06 32.7996H23.734L22.666 23.1967H26.1279ZM26.1279 22.5967H22.669C22.312 22.5967 22.033 22.9087 22.072 23.2627L23.14 32.8656C23.173 33.1686 23.431 33.3996 23.737 33.3996H25.063C25.369 33.3996 25.627 33.1686 25.66 32.8656L26.7279 23.2627C26.7639 22.9057 26.4879 22.5967 26.1279 22.5967Z" fill="#424242"/>
<path d="M41.3585 11.0773C40.6506 11.3143 40.1016 11.8813 39.8886 12.5953L32.8507 36.0549C32.7637 36.3489 32.7907 36.6639 32.9257 36.9369L34.0236 39.1328C34.2246 39.5318 33.9336 40.0028 33.4867 40.0028H12.3999C11.6979 40.0028 11.1369 40.6058 11.2059 41.3198C11.2659 41.9438 11.8239 42.4028 12.4509 42.4028H36.3546C36.6456 42.4028 36.9396 42.3158 37.1646 42.1298C37.6086 41.7578 37.7166 41.1518 37.4736 40.6658L35.7786 37.2789C35.4606 36.6459 35.3976 35.9139 35.6016 35.2359L42.0785 13.6392C42.1235 13.4832 42.2315 13.3602 42.3725 13.2852L41.3765 11.0743L41.3585 11.0773Z" fill="url(#paint1_linear_74_4290)"/>
<path d="M45.8343 10.5852C45.5493 10.0872 44.9343 9.88319 44.3914 10.0662L41.3794 11.0712L42.3754 13.2821C42.4054 13.2671 42.4324 13.2491 42.4654 13.2401L45.1773 12.3341C45.8853 12.0972 46.2273 11.2692 45.8343 10.5852Z" fill="#F57C00"/>
<path opacity="0.2" d="M44.7905 10.6003C45.0125 10.6003 45.2135 10.7083 45.3125 10.8823C45.4415 11.1073 45.3965 11.3053 45.3575 11.4073C45.2915 11.5753 45.1565 11.7073 44.9855 11.7643L42.2735 12.6703C42.1955 12.6973 42.1385 12.7273 42.0905 12.7543C41.8025 12.9073 41.5955 13.1593 41.5025 13.4652L35.0286 35.0589C34.7796 35.8869 34.8576 36.7689 35.2416 37.5429L36.9366 40.9298C37.0626 41.1788 36.9966 41.4818 36.7776 41.6648C36.6756 41.7518 36.5226 41.7998 36.3546 41.7998H12.4509C12.1149 41.7998 11.8299 41.5628 11.8029 41.2598C11.7849 41.0858 11.8419 40.9208 11.9559 40.7948C12.0699 40.6688 12.2289 40.5998 12.3999 40.5998H33.4867C33.9066 40.5998 34.2876 40.3868 34.5066 40.0298C34.7256 39.6728 34.7466 39.2378 34.5606 38.8628L33.4627 36.6669C33.3937 36.5289 33.3817 36.3729 33.4237 36.2259L40.4616 12.7663C40.6206 12.2383 41.0256 11.8213 41.5475 11.6473L41.5655 11.6413L44.5775 10.6363C44.6495 10.6123 44.7185 10.6003 44.7905 10.6003ZM44.7905 10.0003C44.6555 10.0003 44.5205 10.0213 44.3885 10.0663L41.3765 11.0713L41.3585 11.0773C40.6506 11.3143 40.1016 11.8813 39.8886 12.5953L32.8507 36.0549C32.7637 36.3489 32.7907 36.6639 32.9257 36.9369L34.0236 39.1328C34.2246 39.5318 33.9336 40.0028 33.4867 40.0028H12.3999C11.6979 40.0028 11.1369 40.6058 11.2059 41.3198C11.2659 41.9438 11.8239 42.4028 12.4509 42.4028H36.3546C36.6456 42.4028 36.9396 42.3158 37.1646 42.1298C37.6086 41.7578 37.7166 41.1518 37.4736 40.6658L35.7786 37.2789C35.4606 36.6459 35.3976 35.9139 35.6016 35.2359L42.0785 13.6392C42.1235 13.4832 42.2315 13.3603 42.3725 13.2853C42.4025 13.2703 42.4295 13.2523 42.4625 13.2433L45.1745 12.3373C45.8795 12.1003 46.2215 11.2723 45.8315 10.5883C45.6185 10.2073 45.2135 10.0003 44.7905 10.0003Z" fill="#424242"/>
<path d="M17.1998 45.9997C18.5252 45.9997 19.5997 44.9252 19.5997 43.5997C19.5997 42.2743 18.5252 41.1998 17.1998 41.1998C15.8743 41.1998 14.7998 42.2743 14.7998 43.5997C14.7998 44.9252 15.8743 45.9997 17.1998 45.9997Z" fill="#37474F"/>
<path d="M32.7999 45.9997C34.1253 45.9997 35.1998 44.9252 35.1998 43.5997C35.1998 42.2743 34.1253 41.1998 32.7999 41.1998C31.4744 41.1998 30.3999 42.2743 30.3999 43.5997C30.3999 44.9252 31.4744 45.9997 32.7999 45.9997Z" fill="#37474F"/>
<path d="M17.8 44.7997H16.6C16.27 44.7997 16 44.5297 16 44.1997V41.1998H18.4V44.1997C18.4 44.5297 18.13 44.7997 17.8 44.7997Z" fill="#B0BEC5"/>
<path d="M17.2001 43.5996C17.5315 43.5996 17.8001 43.331 17.8001 42.9996C17.8001 42.6683 17.5315 42.3997 17.2001 42.3997C16.8687 42.3997 16.6001 42.6683 16.6001 42.9996C16.6001 43.331 16.8687 43.5996 17.2001 43.5996Z" fill="#FAFAFA" stroke="#757575" stroke-width="0.916654" stroke-miterlimit="10"/>
<path d="M33.3996 44.7997H32.1996C31.8696 44.7997 31.5996 44.5297 31.5996 44.1997V41.1998H33.9996V44.1997C33.9996 44.5297 33.7296 44.7997 33.3996 44.7997Z" fill="#B0BEC5"/>
<path d="M32.7997 43.5996C33.1311 43.5996 33.3997 43.331 33.3997 42.9996C33.3997 42.6683 33.1311 42.3997 32.7997 42.3997C32.4683 42.3997 32.1997 42.6683 32.1997 42.9996C32.1997 43.331 32.4683 43.5996 32.7997 43.5996Z" fill="#FAFAFA" stroke="#757575" stroke-width="0.916654" stroke-miterlimit="10"/>
<defs>
<linearGradient id="paint0_linear_74_4290" x1="24.9995" y1="16.7083" x2="24.9995" y2="38.0712" gradientUnits="userSpaceOnUse">
<stop stop-color="#FFA726"/>
<stop offset="1" stop-color="#FB8C00"/>
</linearGradient>
<linearGradient id="paint1_linear_74_4290" x1="26.7871" y1="5.37797" x2="26.7871" y2="47.5147" gradientUnits="userSpaceOnUse">
<stop stop-color="#90A4AE"/>
<stop offset="1" stop-color="#607D8B"/>
</linearGradient>
</defs>
</svg>
