<svg width="17" height="16" viewBox="0 0 17 16" fill="none" xmlns="http://www.w3.org/2000/svg">
<path d="M8.50006 13.4401C5.49206 13.4401 3.06006 11.0081 3.06006 8.00006C3.06006 4.99206 5.49206 2.56006 8.50006 2.56006C11.5081 2.56006 13.9401 4.99206 13.9401 8.00006C13.9401 11.0081 11.5081 13.4401 8.50006 13.4401ZM8.50006 3.20006C5.84406 3.20006 3.70006 5.34406 3.70006 8.00006C3.70006 10.6561 5.84406 12.8001 8.50006 12.8001C11.1561 12.8001 13.3001 10.6561 13.3001 8.00006C13.3001 5.34406 11.1561 3.20006 8.50006 3.20006Z" fill="#388E3C"/>
<path d="M5.62012 7.68005H11.3801V8.32005H5.62012V7.68005Z" fill="#388E3C"/>
<path d="M8.18018 5.12H8.82018V10.88H8.18018V5.12Z" fill="#388E3C"/>
</svg>
